<svg xmlns="http://www.w3.org/2000/svg" width="27.584" height="20.751" viewBox="0 0 27.584 20.751"><path d="M120.71,395.868H93.126V375.117H120.71ZM96.284,376.952l-.02.025a.512.512,0,0,1,.074.052q4.892,4.89,9.782,9.782a1.483,1.483,0,0,0,.44.305.792.792,0,0,0,.421.079,1.2,1.2,0,0,0,.717-.37q1.49-1.486,2.977-2.976l6.821-6.821c.021-.021.042-.044.072-.076Zm.006,17.075h21.25l-7.228-7.228a.413.413,0,0,1-.043.058c-.421.422-.841.847-1.267,1.265a3.38,3.38,0,0,1-.429.36,2.739,2.739,0,0,1-2.07.522,2.966,2.966,0,0,1-1.6-.81c-.456-.437-.9-.891-1.341-1.338a.363.363,0,0,1-.042-.062Zm-1.324-15.754V392.7l7.213-7.213Zm23.909,0-7.21,7.21,7.21,7.21Z" transform="translate(-93.126 -375.117)" fill="#fff"/></svg>