<svg xmlns="http://www.w3.org/2000/svg" width="46.377" height="46.378" viewBox="0 0 46.377 46.378"><path d="M-2299-1165.235v-41.658a.938.938,0,0,0,.061-.179,2.551,2.551,0,0,1,2.007-2.119c.1-.019.2-.046.3-.07h41.657a.821.821,0,0,0,.157.058,2.546,2.546,0,0,1,2.195,2.589q0,20.549,0,41.1a2.871,2.871,0,0,1-.082.667,2.549,2.549,0,0,1-2.542,1.964q-5.714,0-11.428,0h-.252v-17.948h.3q2.646,0,5.291,0c.475,0,.4.061.458-.405.276-2.082.539-4.164.807-6.247.049-.377.05-.377-.319-.377h-6.557v-.3c0-1.369-.008-2.739,0-4.107a8.837,8.837,0,0,1,.094-1.2,2.273,2.273,0,0,1,1.906-2.064,7.71,7.71,0,0,1,1.484-.146c1.112-.021,2.223-.006,3.335-.007.1,0,.2-.012.33-.02v-1.611c0-1.458,0-2.915,0-4.373,0-.234-.038-.366-.308-.345a2.983,2.983,0,0,1-.407-.039c-.939-.057-1.879-.131-2.819-.163a16.639,16.639,0,0,0-4.492.256,7.748,7.748,0,0,0-5.382,4.108,9.721,9.721,0,0,0-1.031,4.38c-.017,1.8-.01,3.592-.014,5.388,0,.077-.01.155-.015.241h-.314c-1.82,0-3.641,0-5.461,0-.22,0-.285.059-.285.284q.012,3.237,0,6.475c0,.226.065.281.284.28,1.836-.008,3.673,0,5.509,0h.269c.007.089.013.152.013.214q0,8.71,0,17.42c0,.313,0,.314-.318.314h-15.728c-2.038,0-4.076,0-6.113,0a2.557,2.557,0,0,1-2.507-1.982C-2298.938-1164.99-2298.969-1165.113-2299-1165.235Z" transform="translate(2299 1209.261)" fill="#fff"/></svg>