<svg xmlns="http://www.w3.org/2000/svg" width="48.745" height="48.744" viewBox="0 0 48.745 48.744"><path d="M-1195.413-139.508c0-3.929-.008-7.857,0-11.786a15.036,15.036,0,0,1,.841-5.817,10.1,10.1,0,0,1,8.4-6.5,26.322,26.322,0,0,1,3.63-.211q11.482-.027,22.965,0a16.153,16.153,0,0,1,5.885.753,10.164,10.164,0,0,1,6.8,8.666,18.277,18.277,0,0,1,.139,2.42q.044,12.115.061,24.229a15.522,15.522,0,0,1-.786,5.726,10,10,0,0,1-8,6.63,20.37,20.37,0,0,1-3.469.286q-12.165.042-24.331.02a13.645,13.645,0,0,1-5.969-1.084,9.965,9.965,0,0,1-5.851-7.616,24.722,24.722,0,0,1-.312-3.973c-.04-3.911-.014-7.823-.014-11.735Zm42.455.038c0-2.226.021-4.452-.011-6.677a12.813,12.813,0,0,0-.24-2.459,11.152,11.152,0,0,0-10.955-8.943c-4.6-.03-9.207-.017-13.81,0a11.065,11.065,0,0,0-2.255.245,11.148,11.148,0,0,0-8.918,10.924c-.033,4.62-.017,9.24,0,13.86a10.864,10.864,0,0,0,.237,2.206,11.158,11.158,0,0,0,10.957,8.943c4.6.032,9.207.018,13.81,0a11.064,11.064,0,0,0,2.256-.245,11.179,11.179,0,0,0,8.922-11.026C-1152.946-134.917-1152.959-137.194-1152.958-139.47Z" transform="translate(1195.435 163.838)" fill="#fff"/><path d="M-1040.205-23.6q0,3.338,0,6.677a8.071,8.071,0,0,1-8.28,8.281q-6.7.007-13.4,0a8.068,8.068,0,0,1-8.242-8.216q-.009-6.8,0-13.606a7.975,7.975,0,0,1,5.475-7.651,8.469,8.469,0,0,1,2.575-.433c4.6-.041,9.205-.035,13.808-.015a8.058,8.058,0,0,1,8.063,8.086C-1040.193-28.186-1040.206-25.893-1040.205-23.6Zm-14.966-9.006a9.043,9.043,0,0,0-9,8.976,9.041,9.041,0,0,0,9,9.025,9.052,9.052,0,0,0,9-9.029A9.041,9.041,0,0,0-1055.171-32.606Zm9.85-3.058a2.216,2.216,0,0,0-2.2,2.23,2.249,2.249,0,0,0,2.218,2.227,2.264,2.264,0,0,0,2.229-2.272A2.23,2.23,0,0,0-1045.321-35.664Z" transform="translate(1079.547 47.987)" fill="#fff"/><path d="M-943,94.5a5.865,5.865,0,0,1-5.861-5.848,5.865,5.865,0,0,1,5.834-5.874,5.872,5.872,0,0,1,5.887,5.874A5.865,5.865,0,0,1-943,94.5Z" transform="translate(967.376 -64.258)" fill="#fff"/></svg>