<svg xmlns="http://www.w3.org/2000/svg" width="48.067" height="48.063" viewBox="0 0 48.067 48.063"><g transform="translate(0)"><path d="M-854.683-1333.888q0-10.217,0-20.433a3.409,3.409,0,0,1,1.086-2.62,3.4,3.4,0,0,1,2.376-.948q20.564-.011,41.128,0a3.436,3.436,0,0,1,3.412,2.778,3.65,3.65,0,0,1,.063.7q.005,20.516,0,41.033a3.461,3.461,0,0,1-3.134,3.5,4.491,4.491,0,0,1-.54.035q-20.41,0-40.82,0a3.5,3.5,0,0,1-3.492-2.8,4.164,4.164,0,0,1-.075-.866Q-854.686-1323.694-854.683-1333.888Zm25.625-2.885-.063-.013v-2.8c0-.334,0-.336-.322-.336h-6.236c-.314,0-.321.007-.321.316q0,11.2,0,22.393c0,.231.071.289.295.288,2.173-.008,4.346,0,6.519-.006.39,0,.351.048.353-.354q.022-6.033.046-12.066a7.045,7.045,0,0,1,.423-2.347,3.369,3.369,0,0,1,2.3-2.265,5.293,5.293,0,0,1,2.068-.176,2.968,2.968,0,0,1,2.6,1.884,7.748,7.748,0,0,1,.515,3.061q.011,5.975,0,11.952c0,.31,0,.311.309.311h6.9v-.344c0-3.047.006-6.094,0-9.142,0-1.636-.007-3.272-.055-4.907a18.736,18.736,0,0,0-.238-2.334,9.589,9.589,0,0,0-1.165-3.45,6.227,6.227,0,0,0-3.312-2.758,10.968,10.968,0,0,0-4.084-.59,8.281,8.281,0,0,0-2.841.557,7.142,7.142,0,0,0-3.137,2.322C-828.7-1337.319-828.874-1337.042-829.059-1336.773Zm-18.525,19.842h6.85c.313,0,.313,0,.313-.306q0-11.173,0-22.346c0-.338,0-.34-.344-.34h-6.472c-.347,0-.347,0-.347.344v22.648Zm-.567-30.238a4.114,4.114,0,0,0,4.151,4.181,4.118,4.118,0,0,0,4.18-4.165,4.164,4.164,0,0,0-4.176-4.17A4.163,4.163,0,0,0-848.151-1347.169Z" transform="translate(854.685 1357.897)" fill="#fff"/></g></svg>