<svg xmlns="http://www.w3.org/2000/svg" width="7.488" height="7.465" viewBox="0 0 7.488 7.465"><g transform="translate(0.05 0.098)"><path d="M1277.317,350.088c.146.19.282.38.431.558a7.448,7.448,0,0,0,1.275,1.211c.079.059.168.144.252.143.068,0,.137-.11.2-.174.156-.154.31-.309.465-.464a.65.65,0,0,1,.961,0q.609.606,1.215,1.215a.707.707,0,0,1,.039.871,8.569,8.569,0,0,1-.673.674,1.17,1.17,0,0,1-.565.217,2.916,2.916,0,0,1-1.8-.245,7.733,7.733,0,0,1-2.156-1.443,7.648,7.648,0,0,1-1.74-2.487,2.78,2.78,0,0,1-.245-1.516,3.793,3.793,0,0,1,.169-.639.553.553,0,0,1,.136-.2c.179-.186.362-.367.546-.548a.7.7,0,0,1,.964.005l1.173,1.167a.656.656,0,0,1,0,1Zm3.1,3.906c.128-.013.258-.02.384-.041a.934.934,0,0,0,.608-.312c.114-.138.252-.257.379-.384a.3.3,0,0,0,0-.45l-.662-.662c-.178-.178-.355-.357-.536-.532a.212.212,0,0,0-.294-.031.53.53,0,0,0-.1.08q-.376.374-.75.751c-.035.036-.068.057-.117.035a3.048,3.048,0,0,1-.412-.19,5.532,5.532,0,0,1-1.068-.9c-.271-.3-.521-.61-.765-.93a2.13,2.13,0,0,1-.19-.4c-.022-.049,0-.082.034-.117q.38-.377.758-.756c.158-.159.159-.272,0-.43-.278-.278-.557-.554-.835-.831-.113-.112-.224-.226-.339-.336a.289.289,0,0,0-.423,0c-.153.152-.3.309-.46.457a.7.7,0,0,0-.2.326,2.4,2.4,0,0,0,.063,1.449,5.465,5.465,0,0,0,.563,1.111,7.248,7.248,0,0,0,3.152,2.8A2.848,2.848,0,0,0,1280.419,353.994Z" transform="translate(-1274.96 -347.068)" fill="#fff" stroke="#fff" stroke-width="0.1"/></g></svg>