<svg xmlns="http://www.w3.org/2000/svg" width="29.819" height="29.773" viewBox="0 0 29.819 29.773"><path d="M1284.55,359.356c.593.773,1.146,1.544,1.751,2.272a30.254,30.254,0,0,0,5.189,4.926c.32.238.683.586,1.021.581.279,0,.56-.446.826-.708.635-.625,1.26-1.259,1.891-1.887a2.645,2.645,0,0,1,3.911-.014q2.479,2.463,4.943,4.941a2.874,2.874,0,0,1,.161,3.541,34.957,34.957,0,0,1-2.74,2.742,4.761,4.761,0,0,1-2.3.885,11.868,11.868,0,0,1-7.308-1,31.5,31.5,0,0,1-8.771-5.872,31.112,31.112,0,0,1-7.077-10.121,11.317,11.317,0,0,1-1-6.169,15.678,15.678,0,0,1,.689-2.6,2.24,2.24,0,0,1,.552-.8c.727-.756,1.474-1.493,2.22-2.23a2.83,2.83,0,0,1,3.923.022q2.387,2.374,4.773,4.749a2.667,2.667,0,0,1,.01,4.069C1286.359,357.55,1285.5,358.411,1284.55,359.356Zm12.619,15.893c.521-.053,1.047-.081,1.563-.166a3.8,3.8,0,0,0,2.475-1.268c.464-.562,1.025-1.044,1.542-1.561a1.21,1.21,0,0,0,0-1.83q-1.343-1.348-2.691-2.692c-.725-.724-1.446-1.452-2.182-2.166a.864.864,0,0,0-1.195-.127,2.144,2.144,0,0,0-.391.326q-1.531,1.523-3.052,3.055c-.143.144-.277.23-.477.14a12.269,12.269,0,0,1-1.678-.774,22.514,22.514,0,0,1-4.344-3.678c-1.1-1.2-2.121-2.484-3.109-3.782a8.488,8.488,0,0,1-.772-1.637c-.092-.2,0-.334.139-.476q1.547-1.532,3.082-3.078c.643-.646.646-1.107.006-1.748q-1.694-1.7-3.4-3.381c-.458-.456-.91-.919-1.377-1.365a1.176,1.176,0,0,0-1.723.019c-.622.62-1.228,1.257-1.869,1.857a2.847,2.847,0,0,0-.793,1.327,9.78,9.78,0,0,0,.255,5.9,22.237,22.237,0,0,0,2.291,4.521,29.5,29.5,0,0,0,12.825,11.4A11.591,11.591,0,0,0,1297.169,375.248Z" transform="translate(-1274.96 -347.068)" fill="#fff"/></svg>