<svg xmlns="http://www.w3.org/2000/svg" width="21.495" height="28.613" viewBox="0 0 21.495 28.613"><path d="M791.5,296.131a10.871,10.871,0,0,1-1.1,4.73,35.545,35.545,0,0,1-4.563,7.434,64.545,64.545,0,0,1-4.7,5.487c-.4.416-.325.419-.716.005a57.285,57.285,0,0,1-7.72-9.906,21.056,21.056,0,0,1-2.34-5.258,9.652,9.652,0,0,1,.552-6.652,10.766,10.766,0,0,1,17.67-3.131A10.494,10.494,0,0,1,791.5,296.131Zm-10.722,7.213a7.115,7.115,0,1,0-7.119-7.1A7.073,7.073,0,0,0,780.775,303.344Z" transform="translate(-770.008 -285.483)" fill="#fff"/></svg>