<svg xmlns="http://www.w3.org/2000/svg" width="195.198" height="83.152" viewBox="0 0 195.198 83.152"><path d="M131.977,500.784c.494.085,1.151,0,1.451.289a2.321,2.321,0,0,0,2.132.518,2.351,2.351,0,0,1,2.107.8,3.142,3.142,0,0,0,2.928,1.276c.223-.04.609.269.765.515,1.316,2.079,2.6,4.18,3.913,6.32.942-.576,1.671-1.061,2.434-1.481,2.235-1.23,3.952-.524,4.693,1.906s1.425,2.754,3.672,1.62a41.847,41.847,0,0,0,3.741-2.217,2.672,2.672,0,0,1,2.974-.083,11.476,11.476,0,0,1,2.959,2.164,3.472,3.472,0,0,0,2.433.543c1.715-.107,3.412-.474,5.125-.655a6.824,6.824,0,0,1,5.892,1.973,21.023,21.023,0,0,0,1.746,1.417,2.761,2.761,0,0,0-1.025-2.266,2.149,2.149,0,0,1-.764-2.187,10.051,10.051,0,0,1,1.629-4.37,23.991,23.991,0,0,0,3.806-6.769c.217-.663.979-1.193,1.579-1.673.724-.58,1.543-1.041,2.345-1.569-1.866-2.876-.965-5.764-.432-8.67a2.7,2.7,0,0,1,2.17,2.457,2.747,2.747,0,0,1,.017.544,7.649,7.649,0,0,0,.863,4.955c.6,1,.246,1.906-.769,2.7-.854.671-1.8,1.223-2.68,1.862a1.833,1.833,0,0,0-.689.782,25.273,25.273,0,0,1-3.709,6.618,5.409,5.409,0,0,0-.749,1.132c-.394,1.061-.973,2.07.113,3.2a4.519,4.519,0,0,1,1.084,3.375,2.445,2.445,0,0,1-3.48,2.4,6.42,6.42,0,0,1-2.421-1.532c-1.6-1.769-3.549-1.868-5.666-1.528-1.164.187-2.327.393-3.5.534-2.224.268-4.206-.1-5.617-2.1a1.909,1.909,0,0,0-2.592-.4,37.893,37.893,0,0,1-3.641,2.022c-3.434,1.532-5.809.419-6.944-3.154-.081-.256-.177-.508-.315-.9-.451.249-.856.472-1.259.7a19.485,19.485,0,0,1-2.138,1.177,2.195,2.195,0,0,1-2.815-.808c-1.355-1.856-2.647-3.758-3.984-5.627a1.952,1.952,0,0,0-.652-.507c-.888-.493-1.783-.975-2.688-1.435-.274-.139-.652-.346-.878-.257a1.524,1.524,0,0,1-1.941-.653,3.479,3.479,0,0,0-1.167-.911l.238.764c-2.053.986-3.427-.119-3.336-2.915l-2.078-.561a3.952,3.952,0,0,1-3.333,2.319,3.265,3.265,0,0,1-3.285-1.267c-.349-.455-.662-.939-.968-1.424a3.534,3.534,0,0,0-1.921-1.776,2.713,2.713,0,0,1-1.811-2.6c-.033-.574-.284-.714-.78-.889-1.132-.4-2.2-.967-3.328-1.389a14,14,0,0,0-3.427-1.072c-2.605-.25-3.424-1.982-3.223-4.037a16.4,16.4,0,0,1,.932-3.369,15.978,15.978,0,0,1,.782-1.705c-2.442-1.851-2.46-4.564-2.627-7.225l1.795-.289h.936c.07.928.108,1.8.207,2.664a3.059,3.059,0,0,0,1.5,2.617,1.825,1.825,0,0,1,.911,2.1c-.249,1.045-.743,2.028-1.069,3.058a23.259,23.259,0,0,0-.651,2.6c-.092.476.134.757.7.814a12.356,12.356,0,0,1,5.028,1.678,14.81,14.81,0,0,0,3.225,1.147,2.691,2.691,0,0,1,1.782,2.28c-.086.8.191,1.134.95,1.428a4.6,4.6,0,0,1,1.632,1.355,10.418,10.418,0,0,1,1.231,1.9,1.2,1.2,0,0,0,1.684.538c.719-.256.423-.842.47-1.368a17.589,17.589,0,0,1,.6-2.483c.965.517,1.731.877,2.444,1.321.916.57,1.75,1.213,2.86.3a1.3,1.3,0,0,1,1.251-.057,2.786,2.786,0,0,1,.872,1.548,5.865,5.865,0,0,1-.342,1.843l-.1.1Z" transform="translate(-99.064 -435.285)" fill="#e32127"/><path d="M95.172,387.8l-1.795.289a3.988,3.988,0,0,1-1.329-3.7,11.585,11.585,0,0,0-.251-3.769A4.957,4.957,0,0,0,89.32,377c-.1-.061-.237-.154-.253-.249-.161-.974-.282-1.954-.45-2.927A2.141,2.141,0,0,1,89.77,371.4a.833.833,0,0,0,.394-.462c.226-1.142.78-2.178.453-3.477a32.411,32.411,0,0,1-.427-4.454,10.148,10.148,0,0,0-.423-2c-.414-1.3.039-2.157,1.371-2.389a53.079,53.079,0,0,0,5.965-1.546,18.144,18.144,0,0,1,5.914-1.11,7.624,7.624,0,0,0,5.021-1.746c.563-.44.975-1.069,1.521-1.535a6.349,6.349,0,0,1,1.725-1.173c.914-.354,1.909-.492,2.86-.759a2.548,2.548,0,0,0,.876-.445,8.427,8.427,0,0,1,4.125-1.412,30.823,30.823,0,0,0,3.168-.849,1.836,1.836,0,0,1,.34-.124c2.41-.13,4.885-.779,7.082.852.872.647,1.764,1.272,2.607,1.954a1.889,1.889,0,0,1,.808,2.15,1.777,1.777,0,0,1-2.026,1.113c.207.777.811.9,1.386.923,1.146.053,2.3.023,3.444.035.27,0,.634-.068.8.074.826.728,1.22.186,1.81-.383a2.484,2.484,0,0,1,1.692-.548c1.1.056,2.19.368,3.293.5,1.579.19,3.171.276,4.747.48,1.068.138,2.117.425,3.182.6a7.283,7.283,0,0,0,1.423.031c3.355-.127,6.711-.244,10.064-.409a4.636,4.636,0,0,0,2.795-.8,2.031,2.031,0,0,1,2.921.825,1.81,1.81,0,0,0,.6.569,35.826,35.826,0,0,1,3.454,2.246,2.593,2.593,0,0,1,.769,2.743,1.8,1.8,0,0,0,.1,1.088,14.79,14.79,0,0,1,1.056,5.853,1.328,1.328,0,0,1-1.3,1.36,1.353,1.353,0,0,1-1.42-1.337,32.238,32.238,0,0,0-.379-3.236,12.249,12.249,0,0,0-.818-1.861,3.086,3.086,0,0,1-.281-1.189,7.071,7.071,0,0,1,.315-1.387c-.5-.4-.979-.813-1.482-1.2-.209-.16-.472-.4-.685-.376a1.974,1.974,0,0,1-1.926-1.1c-3.745.823-7.531.754-11.3.887-1.179.042-2.363.224-3.533.15a35.554,35.554,0,0,1-3.694-.592c-.118-.02-.231-.084-.349-.1-1.809-.185-3.619-.357-5.426-.553a5.462,5.462,0,0,1-.762-.247,1.744,1.744,0,0,0-1.931.374,9.932,9.932,0,0,1-3.058,1.87A2.355,2.355,0,0,1,133.73,358c-.106-.172-.434-.237-.673-.294a15.692,15.692,0,0,1-2.789-.673,4.2,4.2,0,0,1-2.608-3.04c-.248-1.2-.675-2.359-1.081-3.734-2.884.567-5.78,1.122-8.668,1.721a9.127,9.127,0,0,0-1.217.58c-1.542.583-3.1,1.131-4.638,1.717a1.41,1.41,0,0,0-.723.5c-.863,1.57-2.421,2.21-3.89,2.958a12.747,12.747,0,0,1-4.787,1.081,40.015,40.015,0,0,0-5.686,1.284c-.2.048-.378.2-.579.254-1.14.308-2.284.6-3.425.9.36,1.067.635,2.035-.053,3.006-.109.154-.042.472.014.7.252,1.021.594,2.025.769,3.058a4.237,4.237,0,0,1-.21,1.581,20.4,20.4,0,0,1-.735,2.677,3.3,3.3,0,0,1-.957,1.215,1.065,1.065,0,0,0,.011,1.673,9.829,9.829,0,0,1,1.136,1.333c.087.111.056.325.151.418,1.7,1.649,1.507,3.86,1.747,5.928.093.8-.02,1.617-.006,2.426a1.3,1.3,0,0,0,.222.565A1.867,1.867,0,0,1,95.172,387.8Z" transform="translate(-88.572 -347.681)" fill="#2d2d2b"/><path d="M404.6,437.894c1.471,0,2.891-.025,4.309.025a1.03,1.03,0,0,1,.679.536c1.4,2.777,2.773,5.569,4.154,8.357.133.268.275.531.544,1.051v-9.92h3.562v17.563c-1.143,0-2.257.042-3.363-.032-.249-.017-.554-.4-.694-.68-1.716-3.464-3.405-6.941-5.1-10.414-.126-.258-.271-.506-.533-.992v12.056H404.6Z" transform="translate(-305.329 -409.551)" fill="#e32026"/><path d="M616.521,464.116h-3.578V450.95h3.548c.027.4.052.773.09,1.33,1.323-1.181,2.593-2.153,4.372-1.642a3.3,3.3,0,0,1,2.188,2.1c.542-.455,1.046-.92,1.591-1.33,2.443-1.839,5.414-.792,5.664,2.239.284,3.448.065,6.936.065,10.459h-3.516c-.017-.325-.047-.646-.049-.966-.01-2.437.034-4.875-.054-7.309a2.456,2.456,0,0,0-.766-1.683,1.6,1.6,0,0,0-2.006.264,1.448,1.448,0,0,0-.468.948c-.038,2.451-.02,4.9-.019,7.354v1.391H619.9c0-2.224.009-4.45-.006-6.676a19.538,19.538,0,0,0-.123-2.17,1.32,1.32,0,0,0-1.619-1.291,1.53,1.53,0,0,0-1.622,1.517q-.006,3.9-.008,7.8C616.521,463.553,616.521,463.817,616.521,464.116Z" transform="translate(-448.223 -418.201)" fill="#2d2d2b"/><path d="M162,455.784c-1.3.012-2.6.054-3.9.013a1.24,1.24,0,0,1-.839-.488c-1.16-1.66-2.316-3.326-3.389-5.043a1.56,1.56,0,0,0-2-.851v6.339h-3.841V438.392c2.825,0,5.636-.132,8.429.045a4.106,4.106,0,0,1,3.564,3.9,5.772,5.772,0,0,1-2.887,5.982l4.888,7.109Zm-10.137-9.531a21.23,21.23,0,0,0,2.627-.244c1.1-.237,1.6-1.191,1.527-2.63a1.733,1.733,0,0,0-1.613-1.853,24.22,24.22,0,0,0-2.541-.018Z" transform="translate(-129.35 -409.865)" fill="#e21f25"/><path d="M239.948,438.022h10.418v3.287h-6.537v3.138h6.024v3.31h-6.025V452.2h6.514v3.341H239.948Z" transform="translate(-192.396 -409.643)" fill="#e32126"/><path d="M451.65,455.384c.661-2.234,1.288-4.372,1.925-6.507,1.028-3.445,2.075-6.884,3.079-10.336.173-.6.422-.89,1.06-.774a4.447,4.447,0,0,0,.635.007c.929.031,2.086-.257,2.72.193.593.421.648,1.619.908,2.484,1.48,4.941,2.951,9.885,4.443,14.888h-4.011c-.262-.952-.558-1.93-.793-2.922a.721.721,0,0,0-.869-.656c-1.179.044-2.362.041-3.541,0-.533-.018-.739.169-.847.679a23.176,23.176,0,0,1-.678,2.442c-.066.2-.326.472-.505.479C454.034,455.406,452.891,455.384,451.65,455.384Zm5.749-6.821h3.169l-1.485-5.461-.181-.014Z" transform="translate(-337.597 -409.431)" fill="#e22026"/><path d="M327.45,441.42v3.054h6.013v3.359h-5.991v4.433h6.517V455.6H323.544V438.122H333.98v3.3Z" transform="translate(-249.732 -409.712)" fill="#e32228"/><path d="M192.513,455.576l.019-.357c.138-.037.392-.068.394-.113a9.707,9.707,0,0,0,.011-1.63,3.127,3.127,0,0,1,.668-2.181c2-2.992,3.961-6.01,5.934-9.02.16-.244.295-.505.514-.884H193.4v-3.349h11.5c-.149,1.561.31,3.1-.805,4.629-2.031,2.782-3.834,5.729-5.73,8.61-.162.247-.3.508-.543.909h7.441v3.386Z" transform="translate(-159.862 -409.657)" fill="#e32127"/><path d="M533.58,448.095h-5.985v7.54h-3.85V438.123h10.337v3.245H527.66v3.378h5.92Z" transform="translate(-387.044 -409.713)" fill="#2d2d2b"/><path d="M682.272,463.076a16.382,16.382,0,0,1-2.915,1.319,3.392,3.392,0,0,1-4.1-2.32c-.752-2.365-.421-5.23,3.037-6.094,1.283-.32,2.616-.44,3.981-.659a1.482,1.482,0,0,0-1.178-1.716,5.723,5.723,0,0,0-3.9.311c-.384.157-.773.3-1.231.48v-3.269a12.723,12.723,0,0,1,7.047-.279,3.757,3.757,0,0,1,2.9,3.623c.024.393.02.787.021,1.181,0,2.783,0,5.565,0,8.414h-3.6C682.311,463.711,682.288,463.333,682.272,463.076Zm.018-5.29a26.269,26.269,0,0,0-2.853.742,1.685,1.685,0,0,0-.729,2.117,1.447,1.447,0,0,0,1.663.951c.8-.048,1.673-.253,1.878-1.106A12.544,12.544,0,0,0,682.29,457.786Z" transform="translate(-490.737 -418.18)" fill="#2c2c2a"/><path d="M285.186,455.607h-3.892v-14.17h-4.61v-3.374h13.009v3.276h-4.507Z" transform="translate(-217.592 -409.671)" fill="#e21f25"/><path d="M375.892,452.28v3.338h-10.3v-17.5h3.829V452.28Z" transform="translate(-278.573 -409.711)" fill="#e22026"/><path d="M586.92,464.881h-3.606V451.688h3.574V453.5c1.281-1.082,2.42-2.179,4.2-1.819v3.653c-1.081.109-2.144.2-3.2.33-.73.091-1.013.472-.993,1.28C586.96,459.564,586.92,462.189,586.92,464.881Z" transform="translate(-427.901 -418.961)" fill="#2b2b29"/><path d="M562.693,451.849h3.6v13.189h-3.6Z" transform="translate(-413.758 -419.127)" fill="#323230"/><path d="M566.236,435.619c0,.906,0,1.773,0,2.64,0,.144-.028.288-.047.467h-3.752v-3.107Z" transform="translate(-413.581 -407.995)" fill="#2a2a28"/><path d="M469.951,460.3l1.5-5.475.181.014,1.485,5.461Z" transform="translate(-350.149 -421.171)" fill="#fcf1f1"/></svg>