<svg xmlns="http://www.w3.org/2000/svg" width="132.669" height="153.302" viewBox="0 0 132.669 153.302"><g transform="translate(-210.665 -3449.905)"><g transform="translate(4.1 210.405)"><path d="M697.2,3242.5l11.448,6.781-2.393,135.737-10.112-3.709L691.5,3253.389Z" transform="translate(-419.198 0.59)" fill="#141414"/><g transform="translate(206.564 3239.5)"><path d="M263.534,481.784l-5.622,3.332-6-3.343c-.113,2.511-.213,4.719-.311,6.888l-5.691,3.332-6.144-3.335c-.031,1.458-.062,2.533-.074,3.609-.011,1.043,0,2.087,0,3.212l-5.9,3.378-5.728-3.08c-.776,2.221-.056,4.413-.606,6.714l-5.755,3.281-5.853-3.12c-.658,2.258,0,4.436-.494,6.684l-5.831,3.353-5.762-3.181c-.838,2.243-.1,4.434-.624,6.812l-5.862,3.224-65.947-37.73V404.2c1.049-.629,1.988-1.2,2.938-1.758s1.915-1.095,3.016-1.722l5.758,3.2c.77-2.335-.018-4.59.6-6.845l5.741-3.246,5.887,3.164c.637-2.329.105-4.43.438-6.75l5.841-3.305,5.836,3.167v-6.55l6.043-3.484,5.893,3.2c.752-2.245,0-4.42.54-6.806l5.672-3.27,5.944,3.14c.684-2.255.123-4.43.438-6.743l5.861-3.344,65.931,37.582C264.206,405.673,264.021,479.24,263.534,481.784ZM195.188,374.569l1.75-1.368-4.468-2.43a11.667,11.667,0,0,0,.064,4.689l2.7-.929c-.992.685-1.939,1.449-2.982,2.043-7.278,4.15-14.583,8.252-21.864,12.4-4.23,2.407-8.425,4.873-12.646,7.294q-8.9,5.1-17.8,10.19a15.866,15.866,0,0,0-1.486,1.116l53.46,31.379,65.075-37.9c-2.506-1.963-52.328-30.246-53.918-30.614-1.681.962-3.426,2-5.21,2.966C197.007,373.86,196.081,374.184,195.188,374.569Zm-3.871,136.463c.059-1.224.149-2.255.151-3.285q.033-13.781.039-27.561.01-14.151,0-28.3a21.543,21.543,0,0,0-.249-2.18l-53,30.835C139.619,481.873,188.724,510.1,191.317,511.033Zm11.325,4.74c.471-2.052.415-73.581-.112-75.122l-4.57,2.658v75.129Zm38.5-103.463-.463.22c-.109,25.173-.217,50.346-.324,75.328a13.116,13.116,0,0,0,5.029,2.74V414.813Zm-48.91,28.114c-.285,25.355-.388,50.285-.27,75.271l4.514,2.578a5.244,5.244,0,0,0,.429-1.283c.016-24.526.014-49.051.014-73.824Zm17.891-4.251c0,.875,0,1.548,0,2.22q-.032,20.062-.063,40.125-.024,15.347-.044,30.693c0,.69.1,1.38.17,2.344l4.592-2.668c.06-.59.118-.9.119-1.2.013-4.74,0-9.48.03-14.22.025-4.554.1-9.107.124-13.661q.058-13.023.075-26.046.018-9.153.008-18.305c0-.632-.077-1.264-.135-2.144Zm-5.392-2.662c-.644,2.147-1.051,69.1-.5,75.293a33.532,33.532,0,0,0,4.749,2.8c.024-25.464.331-50.463.2-75.427Zm34.556,61.428c0-22.289,0-44.4,0-66.514,0-2.892-.047-5.784-.076-8.676a.278.278,0,0,0-.1-.155,2.543,2.543,0,0,0-.341-.195l-4.345,2.439c-.022,8.489-.031,16.915-.067,25.34-.035,8.367.036,16.737-.181,25.1-.237,9.094-.164,23.759.443,25.373ZM132.5,405.53l-.511.255c-.129,25.1-.258,50.2-.386,75.088,2.17,1.738,3.583,2.481,5,2.628V407.787Zm100.747,92.334V421.717l-4.287-2.425c-.486,1.415-.889,73.727-.443,75.859Zm23.732-14.033c.469-1.489.908-71.186.552-75.762a12.716,12.716,0,0,0-4.942-2.553v75.8ZM220.63,504.476l.51-.215V428.9l-4.422-2.567a4.927,4.927,0,0,0-.3,1.063c-.011,24.831-.01,49.663-.01,74.672Zm42.682-99.266c-1.05.561-1.809.942-2.544,1.366s-1.45.894-2.239,1.384v75.966l4.783-2.772Zm-41.083,23.833v75.623l4.917-2.765c0-24.882,0-49.6,0-74.312a8.06,8.06,0,0,0-.076-.9c-.005-.049-.068-.1-.116-.133a2.137,2.137,0,0,0-.3-.127Zm28.913,59.12V412.143l-4.482,2.649c-.241,25.309-.338,50.528-.29,76.115Zm-108.657-10.74c.244-5.162.022-10.381.1-15.592.074-5.173.041-10.349.049-15.523q.011-7.854.01-15.709,0-7.828,0-15.631c-1.721-.769-2.96-2.018-4.673-2.416-.49,2.565-.564,65.768-.06,67.379Zm1.962-61.339-.547.207c-.082,19.238-.064,38.476-.121,57.747l2.051,1.367,2.91-1.743V418.454Zm5.436,57,4.781-2.741V422.308a9.559,9.559,0,0,0-4.781-2.693Zm6.206-50.252v44.387l2.054,1.126,2.749-1.673V425.5Zm10.631,40.531V429l-4.621-2.67c-.07.654-.143,1.014-.143,1.374q.015,18.913.048,37.826c0,.05.059.111.106.147a2.113,2.113,0,0,0,.348.142Zm24.35-23.628c-17.662-10.347-35.031-21.04-53.167-31.075v2.648l53.167,31.318Zm-53.38,44.81c.371.261.8.609,1.267.885q2.706,1.593,5.434,3.147,13.227,7.552,26.458,15.1,9.142,5.219,18.283,10.439c.49.279,1.032.465,1.788.8V512.27L137.69,481.8Zm35.121-24.985v-26.8l-4.44-2.655c-.537,1.671-.666,28.133-.188,30.163l1.832.973c.587-.286,1.1-.5,1.568-.776A14.887,14.887,0,0,0,172.812,459.563Zm5.831-3.254V436.278c-1.5-.9-2.764-2.055-4.447-2.523-.528,1.593-.575,23.406-.031,25.194Zm3.567-2.04,2.645-1.657V439.839c-1.507-.833-2.8-1.943-4.683-2.461v15.806Zm3.838-13.719v11.47l4.668-2.722v-6.048Zm28.44-8.191-4.87-2.843c-1.561,1.055-3.114,1.652-4.441,3.022l4.538,2.665Zm12.1-7.151-4.769-2.871a47.6,47.6,0,0,0-4.6,2.973l4.62,2.725Zm-28.992,11.461-4.856,2.813,4.807,2.768,4.8-2.758Zm-60.02-35.106a10.286,10.286,0,0,0-4.711,2.987l4.44,2.421a21.5,21.5,0,0,0,4.564-2.817Zm120.468,5.36a17.416,17.416,0,0,0,4.572-2.873l-4.48-2.556c-2.42,1.116-3.716,1.983-4.416,2.985Zm-84.528-26.113-4.79,2.794,4.8,2.731,4.786-2.763Zm12.072-1.337,4.81-2.824-4.829-2.766c-1.523,1.073-3.277,1.443-4.373,2.993Zm12.157-6.947c1.584-.979,3.218-1.5,4.6-2.9l-4.615-2.616-4.765,2.762Zm-31.4,17.848-4.76-2.683c-1.5,1.029-3.214,1.428-4.54,2.885l4.52,2.6Zm-12.123,6.921-4.757-2.741-4.86,2.781,4.9,2.679Zm75.423,20.658-.014.516,4.384,2.437,4.705-2.763L234,415.4Zm16.525-9.5a20.85,20.85,0,0,0-4.71,2.893l4.712,2.583,4.421-2.717ZM213.093,430.68l2.822-1.746c-.059-1.042-.11-1.963-.179-3.2a41.891,41.891,0,0,0-5.2,3.277Zm38.536-25.942c-1.5,1.3-3.34,1.746-4.864,3.224l2.548,1.557,2.526-1.449C252.026,406.924,252.4,405.981,251.629,404.738Zm-47.888,31.329c-.076-1.087-.137-1.959-.225-3.206l-5.192,3.22,2.615,1.74Zm36.293-21.211c-.055-1.049-.1-1.914-.163-3.138l-5.316,3.135,2.884,1.689Zm-12.188,3.876c-1.819,1.145-3.663,1.736-5.227,3.264l2.706,1.461L227.846,422Zm-71.33-27.287c-.319,1.757-.812,3.2.094,4.79l4.028-2.344Zm28.211-11.3-4.219-2.436a8.346,8.346,0,0,0,.1,4.774Zm-12.17,6.9A12.985,12.985,0,0,0,168.4,384.9a8.488,8.488,0,0,0,.059,4.483Zm-24.109,13.81a11.685,11.685,0,0,0-4.3-2.22v4.635Zm101.616,9.087,2.035,1c-.112-.882-.176-1.387-.271-2.14ZM215.8,432.21c-.05-.926-.077-1.447-.12-2.254l-1.651,1.064Zm-36.317,23.579,1.734-1.1-1.873-1.007Zm-10.26,5.975-1.922-1v1.98Zm-26.007,13.021v2l1.841-1.033Zm82.748-50.9,1.741.966c.077-.717.13-1.22.218-2.034Zm14.083-5.919c-.109-.908-.166-1.379-.257-2.138l-1.582,1.1ZM155.31,467.669c.042.88.064,1.365.1,2.127l1.688-1Zm47.485-29.278-.032-.456-.706.181.046.275Z" transform="translate(-131.334 -366.241)" fill="#8d3cd0"/></g></g></g></svg>