<?xml version="1.0" encoding="utf-8"?>
<!-- Generator: Adobe Illustrator 23.1.0, SVG Export Plug-In . SVG Version: 6.00 Build 0)  -->
<svg version="1.1" id="Warstwa_1" xmlns="http://www.w3.org/2000/svg" xmlns:xlink="http://www.w3.org/1999/xlink" x="0px" y="0px"
	 viewBox="0 0 583 668" style="enable-background:new 0 0 583 668;" xml:space="preserve">
<style type="text/css">
	.st0{fill:#8D3CD0;}
	.st1{fill:#141414;}
</style>
<g id="Group_100" transform="translate(1029.23 7560.259)">
	<g id="XMLID_1_">
		<g>
			<path class="st0" d="M-461.87-7383.52c1.5,41.26,0.83,287.78-0.89,316.94l-1.16-0.08v-316.77L-461.87-7383.52z"/>
			<path class="st0" d="M-461.87-7383.52l-2.05,0.09c-4.38,2.34-7.55,3.93-10.61,5.7c-3.06,1.76-6.05,3.72-9.34,5.77v316.86
				l19.95-11.56l1.16,0.08c-0.07,1.27-0.15,2.13-0.23,2.54l-23.46,13.9c-1.75-0.97-3.49-1.94-5.24-2.92l1.35-2.44
				c1.96-6.2,3.79-296.92,2.31-316.01c-5.38-4.63-14.97-9.73-20.62-10.65v3.31h-2.05c0-2.06-0.47-4.18-1.95-6.56l-1.03-1.77
				l23.38-13.62c-4.9-3.84-53.16-31.8-103.74-60.58l1.27-2.23l130.51,74.39C-462.12-7388.69-461.99-7386.72-461.87-7383.52z
				 M-466.84-7388.28l-18.69-10.66c-10.09,4.65-15.5,8.27-18.42,12.45l18.04,10.19C-478.67-7380.08-472.41-7382.78-466.84-7388.28z"
				/>
			<path class="st1" d="M-463.92-7383.43v316.77l-19.95,11.56v-316.86c3.29-2.05,6.28-4.01,9.34-5.77
				C-471.47-7379.5-468.3-7381.09-463.92-7383.43z"/>
			<path class="st1" d="M-485.53-7398.94l18.69,10.66c-5.57,5.5-11.83,8.2-19.07,11.98l-18.04-10.19
				C-501.03-7390.67-495.62-7394.29-485.53-7398.94z"/>
			<path class="st1" d="M-488.03-7371.51c1.48,19.09-0.35,309.81-2.31,316.01l-18.31-10.49v-312.86v-3.31
				C-503-7381.24-493.41-7376.14-488.03-7371.51z"/>
			<path class="st1" d="M-490.3-7400.8l-23.38,13.62l-49.29,28.71l-111.89,65.17l-86.88,50.6l-222.99-130.89
				c1.98-1.67,4.04-3.22,6.2-4.65c4.78-2.73,9.56-5.46,14.33-8.2c18.82-10.75,37.63-21.52,56.43-32.31c1.16-0.66,2.33-1.33,3.49-2
				c13.79-7.91,27.52-15.93,41.3-23.86c3.81-2.2,7.63-4.38,11.45-6.56c12.8-7.28,25.61-14.53,38.42-21.78
				c17.61-9.96,35.21-19.91,52.78-29.93c4.35-2.48,8.3-5.66,12.44-8.52l0.01,0.01l-0.2,0.15c3.73-1.61,7.59-2.96,11.15-4.88
				c7.44-4.03,14.72-8.36,21.73-12.38c3.53,0.82,63.83,34.5,121.16,67.12C-543.46-7432.6-495.2-7404.64-490.3-7400.8z"/>
			<path class="st0" d="M-490.34-7055.5l-1.35,2.44c-6.27-3.5-12.59-7.02-19.77-11.02c-0.47,10.47-0.89,19.68-1.3,28.73
				c-8.32,4.87-15.82,9.26-23.74,13.9l-13.89-7.55l1.32-2.43c3.52,1.91,7.02,3.31,10.38,4.15v-316.1l-17.69-10.44l-1.93,0.91
				c-0.01,3.24-0.03,6.48-0.04,9.72l-2.67-0.01c-0.22-4.38-0.41-7.99-0.68-13.09l-1.27-2.18l49.29-28.71l1.03,1.77
				c-6.24,5.42-13.94,7.29-20.29,13.45l10.62,6.49l10.54-6.04c0.43-2.58,1.08-4.92,1.08-7.34h2.05v312.86L-490.34-7055.5z
				 M-519.18-7363.68l8.49,4.16c-0.47-3.68-0.73-5.78-1.13-8.92C-514.6-7366.65-516.18-7365.62-519.18-7363.68z M-514.69-7037.43
				v-317.09l-18.69,11.05c-1.01,105.57-1.41,210.76-1.21,317.49C-527.15-7030.26-521.25-7033.66-514.69-7037.43z M-535.44-7347.06
				l18.44-11.33l-18.45-11.51c-6.78,3.75-13.59,6.36-19.64,12.06C-547.82-7353.85-541.61-7350.44-535.44-7347.06z"/>
			<path class="st1" d="M-510.69-7359.52l-8.49-4.16c3-1.94,4.58-2.97,7.36-4.76C-511.42-7365.3-511.16-7363.2-510.69-7359.52z"/>
			<path class="st1" d="M-510.7-7378.85c0,2.42-0.65,4.76-1.08,7.34l-10.54,6.04l-10.62-6.49c6.35-6.16,14.05-8.03,20.29-13.45
				C-511.17-7383.03-510.7-7380.91-510.7-7378.85z"/>
			<path class="st1" d="M-514.69-7354.52v317.09c-6.56,3.77-12.46,7.17-19.9,11.45c-0.2-106.73,0.2-211.92,1.21-317.49
				L-514.69-7354.52z"/>
			<path class="st1" d="M-517-7358.39l-18.44,11.33c-6.17-3.38-12.38-6.79-19.65-10.78c6.05-5.7,12.86-8.31,19.64-12.06
				L-517-7358.39z"/>
			<path class="st1" d="M-538.69-7343.38v316.1c-3.36-0.84-6.86-2.24-10.38-4.15c-3.52-1.92-7.08-4.36-10.59-7.27
				c0.44-100.99,0.87-202.73,1.31-304.49c0.01-3.24,0.03-6.48,0.04-9.72l1.93-0.91L-538.69-7343.38z"/>
			<path class="st0" d="M-549.07-7031.43l-1.32,2.43l-11.73-6.37c-0.13,6.09-0.26,10.57-0.31,15.06c-0.05,4.35-0.01,8.7-0.01,13.39
				l-24.6,14.09l-23.89-12.85c-3.24,9.27-0.24,18.41-2.53,28.01l-24,13.69l-5.74-3.06l1.25-2.35l2.12-0.89v-314.36l-18.44-10.71
				c-0.62,2.13-1.26,3.29-1.26,4.44c0,2.14,0,4.29,0,6.43h-2.09c-0.24-4.34-0.46-8.18-0.75-13.33c-3.96,2.42-7.7,4.45-11.29,6.57
				l-1.2-2.06l111.89-65.17l1.27,2.18c-7.88,4.64-14.33,8.45-22.17,13.07l12.03,7.05c3.89-2.53,7.06-4.59,10.82-7.03l2.67,0.01
				c-0.44,101.76-0.87,203.5-1.31,304.49C-556.15-7035.79-552.59-7033.35-549.07-7031.43z M-568.61-7334.57l7.67,4.33
				c-0.46-3.79-0.69-5.76-1.07-8.91L-568.61-7334.57z M-564.12-7009.16c0-92.98,0.01-185.21-0.01-277.44
				c0-12.07-0.2-24.13-0.32-36.19c-0.06-0.25-0.2-0.48-0.4-0.65c-0.46-0.3-0.93-0.57-1.43-0.81c-5.52,3.1-11.46,6.44-18.12,10.18
				c-0.09,35.41-0.13,70.55-0.28,105.69c-0.14,34.91,0.15,69.82-0.76,104.7c-0.98,37.93-0.68,99.1,1.85,105.84
				C-577.36-7001.46-571.25-7005.01-564.12-7009.16z M-566.52-7329.5l-19.68-11.45l-18.17,10.66l-0.06,2.15
				c5.93,3.3,11.86,6.6,18.29,10.17C-579.92-7321.62-573.86-7325.18-566.52-7329.5z M-589.33-6996.96v-317.62
				c-5.91-3.35-11.83-6.69-17.88-10.12c-2.03,5.91-3.71,307.53-1.85,316.42L-589.33-6996.96z M-611.52-7310.01l-8.17,4.46l7.26,4.02
				C-612.11-7304.51-611.88-7306.61-611.52-7310.01z M-611.86-7313.41v-13.63c-7.59,4.78-15.28,7.24-21.8,13.62
				c4.29,2.31,7.78,4.2,11.28,6.09L-611.86-7313.41z M-635.29-6968.6l20.52-11.53c0-103.79,0-206.88-0.02-309.97
				c-0.03-1.25-0.14-2.51-0.31-3.75c-0.03-0.21-0.29-0.42-0.48-0.56c-0.4-0.21-0.82-0.38-1.25-0.53
				c-5.62,3.33-11.54,6.83-18.46,10.91V-6968.6z M-636.93-7288.24l19.81-11.79c-7.58-4.56-13.76-8.28-19.89-11.97
				c-6.51,4.34-12.95,7.18-19.19,12.4L-636.93-7288.24z"/>
			<path class="st1" d="M-560.94-7330.24l-7.67-4.33l6.6-4.58C-561.63-7336-561.4-7334.03-560.94-7330.24z"/>
			<path class="st1" d="M-561.7-7356.29c0.27,5.1,0.46,8.71,0.68,13.09c-3.76,2.44-6.93,4.5-10.82,7.03l-12.03-7.05
				C-576.03-7347.84-569.58-7351.65-561.7-7356.29z"/>
			<path class="st1" d="M-564.13-7286.6c0.02,92.23,0.01,184.46,0.01,277.44c-7.13,4.15-13.24,7.7-19.47,11.32
				c-2.53-6.74-2.83-67.91-1.85-105.84c0.91-34.88,0.62-69.79,0.76-104.7c0.15-35.14,0.19-70.28,0.28-105.69
				c6.66-3.74,12.6-7.08,18.12-10.18c0.5,0.24,0.97,0.51,1.43,0.81c0.2,0.17,0.34,0.4,0.4,0.65
				C-564.33-7310.73-564.13-7298.67-564.13-7286.6z"/>
			<path class="st1" d="M-586.2-7340.95l19.68,11.45c-7.34,4.32-13.4,7.88-19.62,11.53c-6.43-3.57-12.36-6.87-18.29-10.17l0.06-2.15
				L-586.2-7340.95z"/>
			<path class="st1" d="M-589.33-7314.58v317.62l-19.73-11.32c-1.86-8.89-0.18-310.51,1.85-316.42
				C-601.16-7321.27-595.24-7317.93-589.33-7314.58z"/>
			<path class="st0" d="M-737.27-7545.98l144.5,82.37l-1.27,2.23c-57.33-32.62-117.63-66.3-121.16-67.12
				c-7.01,4.02-14.29,8.35-21.73,12.38c-3.56,1.92-7.42,3.27-11.15,4.88l0.2-0.15l7.1-5.56l-18.64-10.13
				c-0.46,3.93-0.85,7.5-0.85,10.89l-1.78,0.02c0-5.21-0.41-10.45,0.33-15.86L-737.27-7545.98z M-718.23-7531.86l-19.26-10.91
				l-19.87,11.52l19.93,11.47C-730.82-7523.86-724.01-7526.03-718.23-7531.86z"/>
			<path class="st1" d="M-619.69-7305.55l8.17-4.46c-0.36,3.4-0.59,5.5-0.91,8.48L-619.69-7305.55z"/>
			<path class="st1" d="M-611.86-7327.04v13.63l-10.52,6.08c-3.5-1.89-6.99-3.78-11.28-6.09
				C-627.14-7319.8-619.45-7322.26-611.86-7327.04z"/>
			<path class="st1" d="M-614.77-6980.13l-20.52,11.53v-315.43c6.92-4.08,12.84-7.58,18.46-10.91c0.43,0.15,0.85,0.32,1.25,0.53
				c0.19,0.14,0.45,0.35,0.48,0.56c0.17,1.24,0.28,2.5,0.31,3.75C-614.77-7187.01-614.77-7083.92-614.77-6980.13z"/>
			<path class="st1" d="M-617.12-7300.03l-19.81,11.79l-19.27-11.36c6.24-5.22,12.68-8.06,19.19-12.4
				C-630.88-7308.31-624.7-7304.59-617.12-7300.03z"/>
			<path class="st1" d="M-639.83-7284.64v314.36l-2.12,0.89l-17.62-10.05c0-102.16,0-203.61,0.04-305.04c0-2.14,0-4.29,0-6.43
				c0-1.15,0.64-2.31,1.26-4.44L-639.83-7284.64z"/>
			<path class="st0" d="M-641.95-6969.39l-1.25,2.35l-18.68-9.96c-2.74,9.42,0,18.51-2.06,27.88c-7.85,4.52-16.03,9.22-24.32,13.99
				c-8.02-4.43-15.6-8.61-24.03-13.27c-3.5,9.36-0.4,18.5-2.61,28.41l-24.45,13.45c-91.93-52.6-183.62-105.06-275.07-157.38v-323.75
				c4.38-2.62,8.29-5.01,12.25-7.33c3.97-2.32,7.99-4.57,12.58-7.18l24.02,13.35l1.37,2.39c-4.77,2.74-9.55,5.47-14.33,8.2
				c-2.16,1.43-4.22,2.98-6.2,4.65l222.99,130.89l86.88-50.6l1.2,2.06c-3.59,2.11-7.02,4.32-10.38,7.1
				c3.94,2.56,6.88,4.48,10.65,6.94l11.77-7.28h2.09c-0.04,101.43-0.04,202.88-0.04,305.04L-641.95-6969.39z M-662.08-7270.82
				c-0.2-3.86-0.32-6.03-0.5-9.4l-6.88,4.44C-667.05-7274.15-665.33-7273-662.08-7270.82z M-664.9-7180.92
				c0.05-25.45,0.06-50.9,0.03-76.36c0-2.63-0.32-5.27-0.56-8.94l-20.34,11.93c0,3.65,0,6.46,0,9.27
				c-0.08,55.78-0.17,111.57-0.26,167.36c-0.07,42.68-0.13,85.35-0.18,128.03c0,2.88,0.4,5.75,0.7,9.77l19.16-11.12
				c0.25-2.47,0.49-3.74,0.49-5.01c0.06-19.77,0.02-39.54,0.13-59.31c0.1-18.99,0.43-37.99,0.51-56.98
				C-665.05-7108.49-664.95-7144.71-664.9-7180.92z M-687.48-7258.34l19.9-11.86l-20.31-11.86c-6.51,4.4-12.98,6.89-18.52,12.61
				L-687.48-7258.34z M-690.51-6939.63c0.09-106.22,1.38-210.49,0.81-314.62l-18.56-11.14c-2.68,8.96-4.38,288.21-2.06,314.06
				C-705-6946.8-698.26-6944.14-690.51-6939.63z M-724.08-7247.41l11.68-7.32c-0.32-4.53-0.57-8.17-0.94-13.37
				c-7.8,4.84-14.19,8.8-21.65,13.43C-730.79-7251.87-727.69-7249.82-724.08-7247.41z M-716.99-6922.26
				c1.97-8.56,1.73-306.92-0.46-313.34l-19.07,11.08v313.37L-716.99-6922.26z M-716.35-7245.04l-0.13-1.9l-2.95,0.76l0.2,1.14
				H-716.35z M-718.21-7240.45l-19.84-11.77l-20.25,11.73c7.7,4.44,13.84,7.97,20.05,11.55
				C-731.64-7232.73-725.47-7236.27-718.21-7240.45z M-740.9-6917.19c0.06-102.3,0.06-204.6,0.06-307.92
				c-5.73-3.36-11.84-6.94-19.55-11.44c-1.19,105.76-1.62,209.74-1.13,313.96l18.83,10.75
				C-741.81-6914.39-740.9-6915.79-740.9-6917.19z M-763.43-7070.7c0.03-39.35,0.02-78.7-0.01-118.05
				c-0.19-3.05-0.53-6.08-1.03-9.09c-6.82,3.97-13.63,7.93-20.43,11.88l-1.3-2.23l19.46-11.35v-25.23l1.49-2.59l0.01-12.05
				c-73.67-43.16-146.12-87.77-221.77-129.62v11.04l46.58,27.44l-1.39,2.36c-5.88-3.25-11.89-6.57-17.9-9.89l-2.28,0.86
				c-0.34,80.25-0.27,160.49-0.51,240.87c2.95,1.97,5.43,3.62,8.56,5.7l1.32,2.27c-10.97,6.38-21.94,12.76-32.91,19.15
				c5.68,5.57,210.5,123.29,221.32,127.19c0.24-5.1,0.62-9.4,0.63-13.7C-763.5-6994.06-763.45-7032.38-763.43-7070.7z
				 M-765.87-6925.84v-11.03c-73.55-42.11-147.2-84.28-222.04-127.12v11.48c1.55,1.09,3.33,2.54,5.29,3.69
				c7.52,4.43,15.08,8.81,22.66,13.13c36.79,21,73.58,41.99,110.37,62.97c25.42,14.51,50.84,29.03,76.26,43.54
				C-771.29-6928.01-769.03-6927.24-765.87-6925.84z M-964.84-7084.87l7.67-4.31l-7.67-4.05V-7084.87z M-967.26-7277.53
				c0.01-21.77,0.01-43.5,0-65.2c-7.18-3.21-12.35-8.42-19.49-10.08c-2.04,10.7-2.36,274.33-0.25,281.05
				c5.89-3.24,11.68-6.41,19.09-10.47c1.02-21.53,0.09-43.3,0.4-65.03c0.31-21.58,0.17-43.17,0.21-64.75
				C-967.27-7233.85-967.26-7255.69-967.26-7277.53z M-970.5-7387.85l-17.9-10.8c-8.09,2.63-16.21,7.74-19.65,12.46
				c6.26,3.41,12.44,6.78,18.52,10.09C-982.64-7379.85-976.23-7382.6-970.5-7387.85z M-992.44-7056.88v-315.81l-17.11-9.41
				l-2.13,1.06c-0.54,104.69-1.08,209.37-1.61,313.2C-1004.24-7060.59-998.35-7057.49-992.44-7056.88z"/>
			<path class="st1" d="M-661.62-7284.48l-11.77,7.28c-3.77-2.46-6.71-4.38-10.65-6.94c3.36-2.78,6.79-4.99,10.38-7.1
				c3.59-2.12,7.33-4.15,11.29-6.57C-662.08-7292.66-661.86-7288.82-661.62-7284.48z"/>
			<path class="st1" d="M-662.58-7280.22c0.18,3.37,0.3,5.54,0.5,9.4c-3.25-2.18-4.97-3.33-7.38-4.96L-662.58-7280.22z"/>
			<path class="st1" d="M-664.87-7257.28c0.03,25.46,0.02,50.91-0.03,76.36c-0.05,36.21-0.15,72.43-0.32,108.64
				c-0.08,18.99-0.41,37.99-0.51,56.98c-0.11,19.77-0.07,39.54-0.13,59.31c0,1.27-0.24,2.54-0.49,5.01l-19.16,11.12
				c-0.3-4.02-0.7-6.89-0.7-9.77c0.05-42.68,0.11-85.35,0.18-128.03c0.09-55.79,0.18-111.58,0.26-167.36c0-2.81,0-5.62,0-9.27
				l20.34-11.93C-665.19-7262.55-664.87-7259.91-664.87-7257.28z"/>
			<path class="st1" d="M-667.58-7270.2l-19.9,11.86l-18.93-11.11c5.54-5.72,12.01-8.21,18.52-12.61L-667.58-7270.2z"/>
			<path class="st1" d="M-689.7-7254.25c0.57,104.13-0.72,208.4-0.81,314.62c-7.75-4.51-14.49-7.17-19.81-11.7
				c-2.32-25.85-0.62-305.1,2.06-314.06L-689.7-7254.25z"/>
			<path class="st1" d="M-712.4-7254.73l-11.68,7.32c-3.61-2.41-6.71-4.46-10.91-7.26c7.46-4.63,13.85-8.59,21.65-13.43
				C-712.97-7262.9-712.72-7259.26-712.4-7254.73z"/>
			<path class="st1" d="M-717.45-7235.6c2.19,6.42,2.43,304.78,0.46,313.34l-19.53,11.11v-313.37L-717.45-7235.6z"/>
			<polygon class="st1" points="-716.48,-7246.94 -716.35,-7245.04 -719.23,-7245.04 -719.43,-7246.18 			"/>
			<path class="st1" d="M-738.05-7252.22l19.84,11.77c-7.26,4.18-13.43,7.72-20.04,11.51c-6.21-3.58-12.35-7.11-20.05-11.55
				L-738.05-7252.22z"/>
			<path class="st1" d="M-737.49-7542.77l19.26,10.91c-5.78,5.83-12.59,8-19.2,12.08l-19.93-11.47L-737.49-7542.77z"/>
			<path class="st1" d="M-740.78-7516.95l-7.1,5.56l-0.01-0.01l-11.26,3.87c-0.82-2.84-1.12-5.68-1.12-8.66
				c0-3.39,0.39-6.96,0.85-10.89L-740.78-7516.95z"/>
			<path class="st1" d="M-740.84-7225.11c0,103.32,0,205.62-0.06,307.92c0,1.4-0.91,2.8-1.79,5.35l-18.83-10.75
				c-0.49-104.22-0.06-208.2,1.13-313.96C-752.68-7232.05-746.57-7228.47-740.84-7225.11z"/>
			<path class="st0" d="M-759.15-7507.53l11.26-3.87c-4.14,2.86-8.09,6.04-12.44,8.52c-17.57,10.02-35.17,19.97-52.78,29.93
				l-1.14-2.02c3.14-9.37,0.02-18.44,2.26-28.39l23.65-13.64c8.37,4.42,16.24,8.57,24.79,13.09c1.25-4.12,1.5-8.18,1.5-12.26
				l1.78-0.02C-760.27-7513.21-759.97-7510.37-759.15-7507.53z M-788.14-7490.8l20.07-11.78l-20.14-11.53
				c-6.36,4.47-13.67,6.01-18.24,12.48L-788.14-7490.8z M-808.89-7478.24l17.18-9.74l-17.61-10.17
				C-811.63-7490.89-810.44-7485.18-808.89-7478.24z"/>
			<path class="st1" d="M-763.44-7188.75c0.03,39.35,0.04,78.7,0.01,118.05c-0.02,38.32-0.07,76.64-0.16,114.96
				c-0.01,4.3-0.39,8.6-0.63,13.7c-10.82-3.9-215.64-121.62-221.32-127.19c10.97-6.39,21.94-12.77,32.91-19.15
				c12.23-7.11,24.46-14.23,36.7-21.35c4.82-2.81,9.65-5.61,14.47-8.41c11.91-6.94,23.83-13.87,35.76-20.82
				c10.55-6.13,21.12-12.28,31.71-18.44c11-6.39,22.01-12.8,33.05-19.23c5.34-3.1,10.69-6.21,16.04-9.33
				c6.8-3.95,13.61-7.91,20.43-11.88C-763.97-7194.83-763.63-7191.8-763.44-7188.75z"/>
			<path class="st1" d="M-765.24-7239.41l-0.01,12.05l-33.62-19.8l-28-16.5l-38.64-22.76l-24.43-14.39l-34.64-20.4l-15.85-9.34
				l-46.58-27.44v-11.04C-911.36-7327.18-838.91-7282.57-765.24-7239.41z"/>
			<path class="st0" d="M-765.25-7227.36l-1.49,2.59c-6.12-3.54-12.2-7.06-19.46-11.26v47.84l1.3,2.23
				c-5.35,3.12-10.7,6.23-16.04,9.33l-1.27-2.18l11.03-6.91v-53.27c-3.15-1.74-6.07-3.77-9.19-5.63l1.5-2.54L-765.25-7227.36z"/>
			<path class="st1" d="M-765.87-6936.87v11.03c-3.16-1.4-5.42-2.17-7.46-3.34c-25.42-14.51-50.84-29.03-76.26-43.54
				c-36.79-20.98-73.58-41.97-110.37-62.97c-7.58-4.32-15.14-8.7-22.66-13.13c-1.96-1.15-3.74-2.6-5.29-3.69v-11.48
				C-913.07-7021.15-839.42-6978.98-765.87-6936.87z"/>
			<path class="st1" d="M-766.74-7224.77v25.23l-19.46,11.35v-47.84C-778.94-7231.83-772.86-7228.31-766.74-7224.77z"/>
			<path class="st1" d="M-768.07-7502.58l-20.07,11.78l-18.31-10.83c4.57-6.47,11.88-8.01,18.24-12.48L-768.07-7502.58z"/>
			<path class="st1" d="M-791.18-7238.99v53.27l-11.03,6.91l-8.51-4.52v-65.93c3.93,1.08,7.24,2.78,10.35,4.64
				C-797.25-7242.76-794.33-7240.73-791.18-7238.99z"/>
			<path class="st1" d="M-791.71-7487.98l-17.18,9.74c-1.55-6.94-2.74-12.65-0.43-19.91L-791.71-7487.98z"/>
			<path class="st0" d="M-826.87-7263.66l28,16.5l-1.5,2.54c-3.11-1.86-6.42-3.56-10.35-4.64v65.93l8.51,4.52l1.27,2.18
				c-11.04,6.43-22.05,12.84-33.05,19.23l-1.28-2.17l18.18-10.73v-83.55c-3.91-2.35-7.43-5.11-11.24-7.33L-826.87-7263.66z
				 M-813.56-7172.46l7.23-4.59c-2.95-1.58-4.83-2.59-7.82-4.2L-813.56-7172.46z"/>
			<path class="st1" d="M-806.33-7177.05l-7.23,4.59l-0.59-8.79C-811.16-7179.64-809.28-7178.63-806.33-7177.05z"/>
			<path class="st0" d="M-814.25-7474.97l1.14,2.02c-12.81,7.25-25.62,14.5-38.42,21.78c-3.82,2.18-7.64,4.36-11.45,6.56l-1.05-1.84
				v-27.32c8.77-5.05,16.73-9.65,25.2-14.53L-814.25-7474.97z M-838.44-7462.17l19.96-11.53l-20.01-11.52
				c-6.75,3.94-12.64,7.38-19.98,11.65L-838.44-7462.17z M-859.56-7449.45l17.08-9.73c-6.39-4-10.95-7.63-17.33-8.97
				C-861.4-7462-861.32-7455.54-859.56-7449.45z"/>
			<path class="st1" d="M-817.09-7253.85v83.55l-18.18,10.73l-0.5,0.29c-2.27-7.46-2.07-98.45,0.13-105.09
				c2.63,0.73,5.02,1.87,7.31,3.19C-824.52-7258.96-821-7256.2-817.09-7253.85z"/>
			<path class="st1" d="M-818.48-7473.7l-19.96,11.53l-20.03-11.4c7.34-4.27,13.23-7.71,19.98-11.65L-818.48-7473.7z"/>
			<path class="st0" d="M-826.87-7263.66l-1.46,2.48c-2.29-1.32-4.68-2.46-7.31-3.19c-2.2,6.64-2.4,97.63-0.13,105.09l0.5-0.29
				l1.28,2.17c-10.59,6.16-21.16,12.31-31.71,18.44l-1.11-1.9v-143.36l1.3-2.2L-826.87-7263.66z M-841.41-7156.72v-111.77
				c-6.29-3.76-12.31-7.36-18.52-11.08c-2.24,6.97-2.78,117.35-0.78,125.81c2.31,1.23,4.96,2.64,7.64,4.07
				c2.45-1.2,4.58-2.07,6.54-3.24C-844.76-7154.11-843.05-7155.37-841.41-7156.72z M-864.37-7143.44l8.01-4.1l-8.01-4.16V-7143.44z"
				/>
			<path class="st1" d="M-841.41-7268.49v111.77c-1.64,1.35-3.35,2.61-5.12,3.79c-1.96,1.17-4.09,2.04-6.54,3.24
				c-2.68-1.43-5.33-2.84-7.64-4.07c-2-8.46-1.46-118.84,0.78-125.81C-853.72-7275.85-847.7-7272.25-841.41-7268.49z"/>
			<path class="st1" d="M-842.48-7459.18l-17.08,9.73c-1.76-6.09-1.84-12.55-0.25-18.7
				C-853.43-7466.81-848.87-7463.18-842.48-7459.18z"/>
			<polygon class="st1" points="-856.36,-7147.54 -864.37,-7143.44 -864.37,-7151.7 			"/>
			<path class="st0" d="M-864.03-7446.45l1.05,1.84c-13.78,7.93-27.51,15.95-41.3,23.86c-1.16,0.67-2.33,1.34-3.49,2l-1.22-2.12
				l16.8-9.78l-17.19-10.2c-0.71,3.95-1.64,7.52-1.76,11l-2.03-0.01c0.02-5.27-0.36-10.5,0.43-16.01l24.36-13.79L-864.03-7446.45z
				 M-888.35-7433.65l19.94-11.68l-19.86-11.19c-6.27,4.29-13.4,5.96-18.93,12.04L-888.35-7433.65z"/>
			<path class="st0" d="M-865.51-7286.42l-1.3,2.2l-19.28-11.14c-0.29,2.73-0.6,4.23-0.59,5.74c0.04,52.59,0.1,105.18,0.19,157.77
				c0,0.21,0.25,0.46,0.45,0.61c0.46,0.24,0.95,0.44,1.45,0.6l17.78-10.22l1.11,1.9c-11.93,6.95-23.85,13.88-35.76,20.82l-1.13-1.94
				l11.47-6.98v-171.75l1.18-2L-865.51-7286.42z"/>
			<path class="st1" d="M-866.81-7284.22v143.36l-17.78,10.22c-0.5-0.16-0.99-0.36-1.45-0.6c-0.2-0.15-0.45-0.4-0.45-0.61
				c-0.09-52.59-0.15-105.18-0.19-157.77c-0.01-1.51,0.3-3.01,0.59-5.74L-866.81-7284.22z"/>
			<path class="st1" d="M-868.41-7445.33l-19.94,11.68l-18.85-10.83c5.53-6.08,12.66-7.75,18.93-12.04L-868.41-7445.33z"/>
			<path class="st0" d="M-889.94-7300.81l-1.18,2l-20.04-11.11v185.14c2.96,1.62,5.59,3.07,8.57,4.7l1.13,1.94
				c-4.82,2.8-9.65,5.6-14.47,8.41l-1.17-2.01v-200.38c-2.19-2.48-5.29-4.88-8.79-6.87l1.31-2.22L-889.94-7300.81z M-913.99-7114.04
				l7.04-4.18l-7.46-4.69C-914.24-7119.24-914.14-7117.22-913.99-7114.04z"/>
			<path class="st1" d="M-891.12-7298.81v171.75l-11.47,6.98c-2.98-1.63-5.61-3.08-8.57-4.7v-185.14L-891.12-7298.81z"/>
			<path class="st1" d="M-892.19-7430.65l-16.8,9.78c-1.74-3.06-2.24-5.99-2.15-8.98c0.12-3.48,1.05-7.05,1.76-11L-892.19-7430.65z"
				/>
			<path class="st1" d="M-906.95-7118.22l-7.04,4.18c-0.15-3.18-0.25-5.2-0.42-8.87L-906.95-7118.22z"/>
			<path class="st0" d="M-908.99-7420.87l1.22,2.12c-18.8,10.79-37.61,21.56-56.43,32.31l-1.37-2.39c3.21-9.74-0.08-19.15,2.5-28.55
				c7.74-4.37,15.75-8.9,23.95-13.54l24.55,13.2c1.14-4.17,1.38-8.17,1.4-12.14l2.03,0.01
				C-911.23-7426.86-910.73-7423.93-908.99-7420.87z M-918.98-7416.46l-19.84-11.43l-20.27,11.6l20.42,11.17
				C-931.88-7409.02-925.96-7412.43-918.98-7416.46z M-943.03-7401.58c-6.41-4.42-11.26-7.85-17.94-9.26v19.34
				C-954.62-7395.07-949.47-7397.96-943.03-7401.58z"/>
			<path class="st0" d="M-917.1-7111.74l1.17,2.01c-12.24,7.12-24.47,14.24-36.7,21.35l-1.32-2.27c4.03-2.41,7.89-4.73,12.13-7.26
				v-230.28l1.39-2.36l15.85,9.34l-1.31,2.22c-3.49-1.99-7.38-3.56-11.15-4.36v223.04L-917.1-7111.74z"/>
			<path class="st1" d="M-917.1-7312.12v200.38l-19.94,11.43v-223.04c3.77,0.8,7.66,2.37,11.15,4.36
				C-922.39-7317-919.29-7314.6-917.1-7312.12z"/>
			<path class="st1" d="M-938.82-7427.89l19.84,11.43c-6.98,4.03-12.9,7.44-19.69,11.34l-20.42-11.17L-938.82-7427.89z"/>
			<path class="st1" d="M-941.82-7328.19v230.28c-4.24,2.53-8.1,4.85-12.13,7.26c-3.13-2.08-5.61-3.73-8.56-5.7
				c0.24-80.38,0.17-160.62,0.51-240.87l2.28-0.86C-953.71-7334.76-947.7-7331.44-941.82-7328.19z"/>
			<path class="st1" d="M-960.97-7410.84c6.68,1.41,11.53,4.84,17.94,9.26c-6.44,3.62-11.59,6.51-17.94,10.08V-7410.84z"/>
			<polygon class="st1" points="-957.17,-7089.18 -964.84,-7084.87 -964.84,-7093.23 			"/>
			<path class="st1" d="M-967.26-7342.73c0.01,21.7,0.01,43.43,0,65.2c0,21.84-0.01,43.68-0.04,65.52
				c-0.04,21.58,0.1,43.17-0.21,64.75c-0.31,21.73,0.62,43.5-0.4,65.03c-7.41,4.06-13.2,7.23-19.09,10.47
				c-2.11-6.72-1.79-270.35,0.25-281.05C-979.61-7351.15-974.44-7345.94-967.26-7342.73z"/>
			<path class="st1" d="M-988.4-7398.65l17.9,10.8c-5.73,5.25-12.14,8-19.03,11.75c-6.08-3.31-12.26-6.68-18.52-10.09
				C-1004.61-7390.91-996.49-7396.02-988.4-7398.65z"/>
			<path class="st1" d="M-992.44-7372.69v315.81c-5.91-0.61-11.8-3.71-20.85-10.96c0.53-103.83,1.07-208.51,1.61-313.2l2.13-1.06
				L-992.44-7372.69z"/>
		</g>
		<g>
		</g>
	</g>
</g>
</svg>
