<svg
    xmlns="http://www.w3.org/2000/svg" width="291.507" height="290.244" viewBox="0 0 291.507 290.244">
    <g id="Group_143" data-name="Group 143" transform="translate(104.468 -6399.637)">
        <g id="layer1" transform="translate(-103.503 6400.4)">
            <g id="g8145" transform="translate(0 0)">
                <path id="kontur" class="map_contour" d="M16.181,48.966l3.461,2.077,2.374,1.483s3.264,4.228,4.154,4.154,0-2.967,0-2.967l.89-4.154,1.78-2.967-1.187-3.264a2.823,2.823,0,0,1-2.967.89,13.707,13.707,0,0,1-3.56-2.67l-2.967,2.077-2.967-1.483V36.208l2.967,2.077,2.967.89,4.45-1.483,5.341-.3,5.934-.89,5.637-1.187L50.2,33.241l5.341-1.187,4.747-.89,6.231-.89s3.635,0,5.637-1.483a10.279,10.279,0,0,0,2.967-4.45l3.857-3.264,4.747-3.264,5.044-1.78,6.527-.593,7.417-1.483,6.527-1.187,8.307-.3,5.934-1.483,2.967-1.483L131.5,8.022l4.45-.3,8.307,4.747,3.264,3.264a25.022,25.022,0,0,1,2.67,4.45c.3.684-1.78-.3-1.78-.3l-1.335-3.115-1.632-1.929-4.45-3.412-4.154-1.929v4.45l.3,4.45.89,4.45.3,4.45,3.264,2.967,2.67,2.967,5.637.89,4.45-.3,7.121-1.483,4.154-1.78s2.151-2.6,3.857-2.67,2.967,2.374,2.967,2.374l13.351,1.483,8.9,2.967L207.747,36.8l11.274,1.78,6.824,1.187,7.417.89h8.9l4.45-1.483h4.45L257,37.691l3.931.074,5.563,3.189,2.374,4.154,4.45,2.967,2.225,2.6.742,6.3V62.91l1.854,4.154.223,7.121,1.632,4.747.742,7.417,2.059,5.341s.3,3.093.557,4.964c.376,2.72.92,1.131,1.145,3.868.166,2.029,1.356,2.142,1.478,4.111s-.518,3.4.4,5.452c.842,1.882,2.67,5.341,2.67,5.341l-1.78,4.154-4.154,3.857a18.378,18.378,0,0,1-4.45,2.967c-2.077.816-1.929,2.077-4.154,3.56a19.6,19.6,0,0,0-4.154,4.154s-4.3,2.151-3.56,4.747,6.231,5.044,6.231,5.044l5.044,3.56,1.187,5.934v7.417l-.4,7.368.494,5.291-.593,7.121,1.483,5.934,2.967,5.934,2.967,2.967,2.967,5.934,1.483,2.967,2.967,2.374c-1.088.3-1.879,1.129-2.967.593l-2.967,4.45,2.967,4.45,4.45,2.967-2.967,5.934-3.264.593-9.272,8.753L270,244.389l-8.975,9.049-9.272,10.829-4.154,2.374,3.857,6.231-1.78,3.857.89,7.714,3.56,5.044-.3,6.231-4.154-3.264-5.044-.593-7.417-4.45-7.417-1.483-5.934-4.45-4.45-2.967L212,275.542l-5.934-4.45-5.934,1.484-5.934,4.45-5.934,1.483-4.45-2.967-4.45-4.45-5.934,1.484-2.967,2.967-2.967,7.417-5.934-2.967-5.934,1.483,1.483-7.417-1.483-4.45-2.967-7.417-2.967-2.967-2.967,1.483-4.45,4.45-1.483,2.967h-2.967l-4.45,1.483-3.338-5.439a44.662,44.662,0,0,1-1.113-6.923l-4.45-4.45v-4.45l-5.934-5.934-5.934-4.45-5.934-2.967-5.934,5.934-4.45-5.934-4.45-5.934,2.967-4.45,2.967-2.967-4.45-2.967H87.388l-8.9-1.483s-4.821-4.45-5.934-4.45-.558,1.315,1.483,5.637c.946,2,.371,2.67,1.632,4.154,1.146,1.348-.148,3.56-.148,3.56l-2.967-.593-2.967,1.78s-2.744,3.709-4.45,3.264-3.857-4.747-3.857-4.747L59.8,221.642l-2.967-5.934-3.857-3.857,2.967-3.857s4.376-.445,4.747-2.67-2.077-4.45-2.077-4.45l-2.374-2.967-7.417-1.483-8.9-1.483L32.5,193.456l-4.45-7.417-1.483-4.45-5.341-1.483a5.23,5.23,0,0,0-1.78,2.077,8.333,8.333,0,0,0-.3,2.967l-2.967-.593a33.863,33.863,0,0,0,2.374-5.044,10.43,10.43,0,0,0,.593-3.857l3.264-6.231s.816-3.486-1.78-9.494c-1.3-3-2.485-6.122-4.423-8.673s-1.289-4.57-2.7-7.052c.668-2.482,1.187-5.637,1.187-5.637l4.45-5.934,1.483-5.934-1.483-2.967v-4.45l-2.967-4.45.3-5.637,2.67-4.747s-1.261-1.558-3.115-3.412-4.3-4.005-4.3-4.005L9.654,92.58,5.5,88.426l2.967-4.45a16.83,16.83,0,0,0,5.044-5.044,52.159,52.159,0,0,0,4.747-8.9l.89-5.637-2.967-4.45Z" transform="translate(-5.5 -7.725)"/>
            </g>
        </g>
        <circle id="tarnow" class="map__dot" cx="5" cy="5" r="4" transform="translate(89 6616)"/>
        <circle id="katowice" class="map__dot" cx="5.5" cy="5.5" r="4.5" transform="translate(21 6598)"/>
        <circle id="modlniczka" class="map__dot" cx="5" cy="5" r="4" transform="translate(51 6596)"/>
        <circle id="lublin" class="map__dot" cx="5" cy="5" r="4" transform="translate(134 6561)"/>
        <circle id="rzeszow" class="map__dot" cx="5" cy="5" r="4" transform="translate(127 6624)"/>
        <circle id="krakow" class="map__dot" cx="5" cy="5" r="4" transform="translate(62 6610)"/>
    </g>
</svg>
