<?xml version="1.0" encoding="utf-8"?>
<!-- Generator: Adobe Illustrator 23.1.0, SVG Export Plug-In . SVG Version: 6.00 Build 0)  -->
<svg version="1.1" id="Warstwa_1" xmlns="http://www.w3.org/2000/svg" xmlns:xlink="http://www.w3.org/1999/xlink" x="0px" y="0px"
	 viewBox="0 0 738 884" style="enable-background:new 0 0 738 884;" xml:space="preserve">
<style type="text/css">
	.st0{fill:#141414;}
	.st1{fill:#8D3CD0;}
</style>
<g id="Group_115" transform="translate(0 23.243) rotate(-3)">
	<g id="XMLID_2_">
		<g>
			<path class="st0" d="M620.4,226.98c0.46,6.55,1.21,10.77,0.96,14.92c-3.26,51.03-6.49,102.05-9.73,153.07
				c-3.23,50.69-6.42,101.37-9.58,152.07c-2.33,37.42-4.89,74.84-6.71,112.28c-0.48,9.9-3.46,15.9-12.87,20.5
				c-56.65,27.7-112.91,56.15-169.39,84.21c-28.38,14.1-56.9,27.92-85.4,41.81c-2.61,1.04-5.28,1.93-7.99,2.66
				c0-9.37-0.41-17.5,0.07-25.56c3.23-53.41,6.54-106.83,9.94-160.24c3.04-47.97,6.28-95.92,9.3-143.89
				c2.47-39.12,4.69-78.27,7.11-117.4c2.29-37.07,4.76-74.14,7.01-111.23c0.34-5.54,2-9.43,7.46-12.08
				c38.62-18.76,77.11-37.82,115.67-56.73c0.54-0.27,1.3-0.12,3.94-0.29c-2.37,39.26-4.71,78.29-7.22,119.95L620.4,226.98z"/>
			<path class="st0" d="M622.13,211.31c3.45,7.72-0.48,11.41-6.1,14.24c-10.33,5.2-20.7,10.3-31.03,15.49
				c-32.83,16.49-65.67,32.96-98.53,49.39c-2.63,1.31-5.47,2.23-8.35,3.39c-2.73-6.83-0.86-10.87,5.08-13.83
				c35.26-17.7,70.53-35.41,105.78-53.13c8.51-4.27,17-8.57,25.56-12.73C616.87,212.98,619.42,212.3,622.13,211.31z"/>
			<path class="st0" d="M621.49,206.34L477.53,278.5c0.7-13.72,1.13-25.75,1.97-37.73c1.69-24.45,3.45-48.91,5.52-73.32
				c0.59-7.1-2.22-11.09-8.06-14.85c-37.26-23.92-74.27-48.2-111.35-72.4c-2.22-1.45-4.29-3.14-8.09-5.95
				c11.71-5.83,21.55-11.23,31.84-15.49c2.65-1.09,7.28,0.57,10.13,2.35c20.2,12.66,40.28,25.51,60.22,38.57
				c42.13,27.64,84.24,55.32,126.33,83.04C597.3,190.14,608.49,197.66,621.49,206.34z"/>
			<path class="st0" d="M575.72,688.21c2.34,14.77-0.66,43.83-4.74,48.73C567.78,727.39,570.58,694.1,575.72,688.21z"/>
			<path class="st0" d="M568.5,691.06c-1.13,16.77-2.11,31.17-3.27,48.19l-40.88-26.55C538.68,704.7,553.42,697.48,568.5,691.06z"/>
			<path class="st1" d="M472.98,301.02c2.5-41.66,4.85-80.69,7.22-119.95c-2.64,0.17-3.4,0.02-3.94,0.29
				c-38.55,18.92-77.04,37.97-115.67,56.73c-5.47,2.65-7.12,6.54-7.46,12.08c-2.25,37.08-4.72,74.15-7.01,111.23
				c-2.42,39.13-4.64,78.27-7.11,117.4c-3.02,47.97-6.26,95.92-9.3,143.89c-3.4,53.41-6.71,106.83-9.94,160.24
				c-0.48,8.07-0.07,16.19-0.07,25.56c2.71-0.73,5.38-1.61,7.99-2.66c28.5-13.89,57.02-27.7,85.4-41.81
				c56.48-28.06,112.74-56.51,169.39-84.21c9.41-4.6,12.39-10.61,12.87-20.5c1.81-37.45,4.37-74.86,6.71-112.28
				c3.16-50.69,6.35-101.38,9.58-152.07c3.24-51.02,6.48-102.04,9.73-153.07c0.25-4.15-0.5-8.37-0.96-14.92L472.98,301.02z
				 M485.02,167.45c-2.07,24.42-3.83,48.87-5.52,73.32c-0.84,11.98-1.27,24.01-1.97,37.73l143.96-72.16
				c-13-8.67-24.2-16.2-35.45-23.62c-42.09-27.71-84.2-55.39-126.33-83.04c-19.94-13.06-40.02-25.91-60.22-38.57
				c-2.85-1.78-7.48-3.45-10.13-2.35c-10.3,4.27-20.13,9.67-31.84,15.49c3.8,2.81,5.87,4.5,8.09,5.95
				c37.08,24.19,74.09,48.47,111.35,72.4C482.8,156.36,485.61,160.35,485.02,167.45z M616.03,225.55c5.63-2.83,9.55-6.52,6.1-14.24
				c-2.72,0.99-5.26,1.68-7.6,2.82c-8.56,4.16-17.06,8.46-25.56,12.73c-35.25,17.72-70.51,35.43-105.78,53.13
				c-5.94,2.96-7.81,7-5.08,13.83c2.87-1.16,5.72-2.07,8.35-3.39c32.86-16.43,65.7-32.9,98.53-49.39
				C595.33,235.85,605.7,230.74,616.03,225.55z M626.51,213.23c-2.69,39.11-5.12,78.25-7.58,117.37
				c-1.83,29.26-3.56,58.54-5.37,87.81c-2.98,47.98-5.97,95.96-8.99,143.94c-2.16,34.36-4.6,68.71-6.43,103.09
				c-0.42,7.77-2.53,13.2-10.3,15.47c-5.47,1.6-7.01,5.47-7.28,10.83c-0.68,13.27-1.47,26.56-2.89,39.77
				c-1.34,12.57-7.25,15.43-17.65,8.94c-11.57-7.22-23.06-14.57-34.31-22.27c-4.22-2.89-7.5-3.01-12.09-0.71
				c-53.97,26.98-108.01,53.78-162.14,80.4c-6.77,3.31-9.64,7.39-9.77,14.83c-0.2,11.58-1.44,23.14-2.09,34.71
				c-0.78,14.39-7.95,18.49-19.87,10.79c-28.07-18.11-55.97-36.49-83.96-54.73c-29.71-19.35-59.43-38.68-89.15-58.01
				c-12.56-8.19-24.77-16.94-37.58-24.69c-6.26-3.78-8.07-8.44-7.43-15.19c0.65-6.73,1.38-13.22-5.67-18.33
				c-2.59-1.88-2.09-7.99-3.28-13.37c-6.12,1.29-11.22,5.82-17.64,0.91c-5.68-4.33-8.75-8.39-8.24-15.96
				c2.99-42.85,5.56-85.73,8.17-128.6c3.16-52.08,6.12-104.15,9.33-156.22C87.38,324.01,90.57,274,93.9,224
				c2.44-37.42,5.09-74.83,7.4-112.26c0.11-4.01-0.6-8-2.09-11.73c-4.3-11.54-1.6-19.59,9.27-24.95
				c44.64-22.02,89.37-43.85,133.91-66.08c6.03-3,10.38-2.54,15.85,1.11c28.63,19.1,57.61,37.7,86.22,56.83
				c5.81,3.88,10.72,4.66,16.92,1.3c8.39-4.54,17.22-8.24,25.68-12.66c4.5-2.34,8.12-1.89,12.28,0.85
				c35.29,23.27,70.64,46.43,106.05,69.52c37.96,24.8,75.88,49.66,114.04,74.16C624.72,203.49,626.94,206.95,626.51,213.23z
				 M297.25,231.95c-1.63,22.82-3.37,44.84-4.74,66.9c-2.97,47.95-5.69,95.91-8.64,143.85c-3.2,52.03-6.47,104.05-9.82,156.07
				c-2.41,38.09-4.85,76.17-7.32,114.25c-1.51,23.46-3.05,46.92-4.62,70.38c-0.43,6.28,0.59,11.47,8.49,13.48
				c0.41-2.49,0.97-4.7,1.11-6.93c4.78-74.46,9.55-148.93,14.26-223.41c2.83-44.89,5.42-89.79,8.25-134.68
				c2.4-38.09,5.04-76.16,7.51-114.24c1.6-24.83,3.03-49.67,4.66-74.49C306.76,237.37,305.42,233.1,297.25,231.95z M229.78,764.62
				c-16.88,5.38-23.69,0.84-27.53-19.73c-6.99,5.7-12.64,4.79-19.34,0.95c-7.35-4.21-6.5-11.02-7.94-17.84
				c-6.83,2.76-12.46,4.77-19.45,0.03c-6.76-4.58-5.86-11.45-8.33-17.9c-6.86,3.09-12.45,3.94-19.35-0.31
				c-7.29-4.5-6.15-11.11-7.43-17.26c-13.89,3.56-14.1,4.27-15.22,14.45c-0.73,6.73,3.73,8.95,7.92,11.72
				c26.71,17.61,53.45,35.2,80.21,52.74c41.62,27.18,83.28,54.28,124.99,81.33c2.5,1.37,5.08,2.58,7.74,3.63l2.68-46.89
				c-8.45,3.76-14.98,7.26-21.91,9.5c-3.39,1.09-7.76,0.56-11.31-0.49c-9.04-2.71-10-10.67-10.06-19.64
				c-7.07,3.81-12.56,4.71-19.69,1.14c-8.14-4.07-6.24-11.9-9.66-18.13c-6.46,3.85-11.61,3.94-18.12-0.28
				C231.19,777.21,231.26,770.81,229.78,764.62z M234.59,260.65c1.32-20.06,2.7-40.11,4.14-60.17c0.44-6.28-0.56-11.53-9.93-13.08
				c-11.57,185.48-23.12,370.52-34.73,556.44c8.51-1.52,10.44-5.6,10.81-11.84c3.04-50.34,6.36-100.67,9.5-151
				c2.44-39.12,4.66-78.24,7.1-117.36c2.35-37.75,4.86-75.49,7.3-113.23C230.71,320.5,232.65,290.58,234.59,260.65z M242.54,196.24
				c-0.44,1.77-0.78,3.56-1,5.37c-2.05,32.65-4.08,65.31-6.07,97.96c-2.42,39.12-4.84,78.22-7.26,117.34
				c-3.01,47.28-6.23,94.54-9.18,141.82c-2.79,44.9-5.4,89.81-8.03,134.71c-1.1,18.71-2.04,37.42-3.15,56.14
				c-0.3,5.13-0.05,9.71,7.71,11.02c0.49-2.85,1.09-5.11,1.24-7.39c3.27-49.65,6.52-99.3,9.71-148.95
				c2.42-38.1,4.64-76.2,6.97-114.3c3.21-52.39,6.43-104.78,9.68-157.17c1.64-26.18,3.59-52.35,5.3-78.54
				c1.02-15.65,1.84-31.31,2.75-46.96C251.55,201.32,250.22,196.63,242.54,196.24z M570.98,736.94c4.07-4.9,7.08-33.96,4.74-48.73
				C570.58,694.1,567.78,727.39,570.98,736.94z M565.24,739.24c1.15-17.01,2.14-31.41,3.27-48.19
				c-15.09,6.42-29.83,13.65-44.14,21.64L565.24,739.24z M473.97,178.22c6.13-2.97,8.94-6.85,5.66-14.14l0-0.01
				c-2.76,1.16-5.28,2.05-7.67,3.22c-20.19,9.89-40.36,19.8-60.52,29.74c-22.93,11.26-45.89,22.44-68.79,33.74
				c-8.16,4.03-8.61,5.38-5.35,14.13c1.88-0.71,3.83-1.27,5.63-2.16c27.22-13.33,54.41-26.69,81.6-40.08
				C441.02,194.53,457.43,186.23,473.97,178.22z M479.49,159.04c-4.02-2.85-5.87-4.27-7.83-5.55c-25.99-16.91-51.99-33.82-78-50.71
				c-45.72-29.75-91.4-59.54-137.05-89.37c-4.91-3.21-8.92-3.4-14.14-0.8c-42.11,20.98-84.33,41.69-126.51,62.53
				c-3.71,1.84-7.29,3.97-11.82,6.46c3.49,2.48,5.36,3.92,7.34,5.2c71.37,46.59,142.83,93.03,213.98,139.93
				c7.32,4.83,12.81,2.44,18.87-0.52c32.75-16.04,65.46-32.16,98.14-48.37C454.29,171.99,466,165.9,479.49,159.04z M333.6,855.66
				c4.26-15.78,4.2-31.85,1.85-48.12c-5.3,15.59-2.9,31.87-6.16,47.63L333.6,855.66z M349.23,258.93c0.26-4.18,0.03-8.4,0.03-13.24
				c-9.52,3.69-9.78,3.67-10.36,11.01c-1.11,13.93-1.92,27.89-2.79,41.84c-3.15,50.35-6.28,100.72-9.4,151.09
				c-3.82,61.25-7.65,122.51-11.5,183.76c-2.45,38.78-5.05,77.56-7.48,116.35c-1.34,21.38-2.5,42.77-3.8,65.18
				c9.74-0.65,10.46-6.45,10.86-12.99c3.47-56.83,7.01-113.64,10.63-170.46c4.45-70.08,8.93-140.17,13.45-210.25
				C342.34,367.13,345.78,313.02,349.23,258.93z M333.66,260.53c0.31-5.24-0.28-9.71-8.23-9.79c-0.65,3.96-1.48,7.26-1.7,10.6
				c-2.22,35.04-4.32,70.09-6.5,105.12c-2.45,39.48-4.93,78.95-7.44,118.42c-2.93,46.62-5.86,93.24-8.79,139.85
				c-2.01,31.99-3.98,63.97-5.93,95.96c-1.67,27.22-3.26,54.44-5.01,81.66c-0.38,6,0.59,10.78,8.52,12.31
				c0.5-3.16,1.18-6.04,1.35-8.95c3.64-59.56,7.13-119.12,10.83-178.68c3.98-64.32,8.05-128.63,12.22-192.94
				c2.49-39.13,5.09-78.25,7.54-117.39C331.7,297.99,332.59,279.25,333.66,260.53z M329.14,245.68c2.56-6.87,1.96-11.03-3.82-14.8
				c-71.68-46.74-143.31-93.58-214.86-140.51c-2.9-1.64-5.89-3.09-8.95-4.36c-1.87,6.74-0.91,10.88,3.88,13.89
				c3.46,2.18,6.75,4.64,10.16,6.88c60.8,39.7,121.6,79.38,182.41,119.05C308.1,232.43,318.37,238.83,329.14,245.68z M320.67,253.37
				c0.43-6.27-1.21-10.63-9.64-12.34c-11.6,185.6-23.13,370.42-34.71,555.84c9.27-0.54,10.54-5.85,10.92-11.99
				c2.34-36.72,4.78-73.44,7.09-110.17c1.63-26.18,3.08-52.38,4.69-78.56c3.11-50.34,6.25-100.67,9.43-151
				c2.45-38.77,5.01-77.53,7.48-116.31C317.53,303.68,318.96,278.51,320.67,253.37z M293.08,234.67c0.39-6.01-1.03-9.93-9.28-10.94
				c-11.93,185.02-23.54,369.74-34.67,555.27c8.38-0.82,10.09-4.79,10.45-10.59c2.02-32.99,4.29-65.98,6.37-98.96
				c2.27-36.06,4.38-72.13,6.68-108.19c2.32-36.39,4.88-72.77,7.16-109.17c2.53-40.13,4.87-80.3,7.3-120.43
				C289.05,299.31,290.95,266.99,293.08,234.67z M279.14,225.53c0.39-6.13-1.29-9.81-8.54-11.34c-0.39,1.56-0.71,3.15-0.92,4.74
				c-3.24,47.95-6.56,95.88-9.63,143.83c-1.89,29.59-3.3,59.22-5.13,88.82c-2.35,38.43-4.97,76.86-7.36,115.29
				c-2.57,41.16-4.99,82.33-7.52,123.5c-1.57,25.51-3.13,51.03-4.92,76.52c-0.43,6.27,1.15,10.5,8.52,11.92
				c0.42-3.03,0.96-5.63,1.11-8.26c2.34-37.76,4.54-75.54,6.94-113.29c4.42-69.75,8.89-139.5,13.42-209.23
				C269.8,373.87,274.34,299.7,279.14,225.53z M263.3,257.32c0.84-13.6,1.53-27.23,2.23-40.84c0.28-5.6-1.07-10.08-9.52-10.85
				c-11.51,185.12-23.01,369.93-34.55,555.48c7.81-0.35,10.61-3.78,10.92-9.69c0.42-8.18,0.63-16.36,1.15-24.53
				c3.87-61.59,7.76-123.18,11.69-184.77c3.25-51.03,6.51-102.06,9.79-153.1C257.8,345.12,260.56,301.22,263.3,257.32z
				 M224.15,191.48c0.38-5.83,0.11-11.02-8.19-13c-0.55,1.79-0.98,3.61-1.28,5.47c-1.35,18.34-2.74,36.69-3.9,55.05
				c-3.65,58.15-7.25,116.31-10.8,174.47c-3.21,51.68-6.46,103.37-9.74,155.05c-2.47,39.1-4.97,78.2-7.49,117.3
				c-0.96,15.3-1.78,30.61-2.7,45.91c-0.34,5.69,1.17,9.92,8.62,10.64c0.39-3.29,0.9-6.21,1.09-9.16
				c2.17-34.01,4.32-68.02,6.44-102.03c5.42-86.73,10.84-173.45,16.26-260.18c2.45-38.76,5.17-77.52,7.72-116.29
				C221.56,233.65,222.74,212.56,224.15,191.48z M210.7,180.3c0.41-6.01-1.92-9.58-9.5-11.34
				c-11.63,185.8-23.21,370.87-34.84,556.56c8.68-0.68,10.75-5.17,11.13-11.73c2.58-43.18,5.25-86.36,8-129.54
				c3.38-53.73,6.77-107.45,10.2-161.16c4.16-66.64,8.31-133.29,12.4-199.93C208.97,208.87,209.73,194.58,210.7,180.3z
				 M196.35,171.51c0.36-5.68-0.81-10.12-8.36-10.88c-0.67,2.55-1.17,5.15-1.5,7.76c-2.99,48.31-5.94,96.61-8.86,144.93
				c-2.77,44.91-5.6,89.81-8.48,134.7c-2.12,33.68-4.21,67.34-6.29,101.02c-3.4,54.77-6.81,109.54-10.24,164.32
				c-0.4,6.07,1.67,9.68,8.69,11.57c0.56-5.84,1.23-11.14,1.55-16.47c3.11-50.71,6.2-101.41,9.24-152.12
				c4.59-74.17,9.21-148.35,13.89-222.53c2.4-38.11,5.01-76.2,7.47-114.31C194.51,203.51,195.35,187.51,196.35,171.51z
				 M183.56,165.24c0.36-5.91,0.43-11.83-9.67-13.96c-11.64,185.76-23.21,370.52-34.84,556.13c8.43-1.33,10.62-5.42,10.99-11.61
				c1.5-24.83,3.33-49.62,4.83-74.46c1.72-28.57,3.05-57.17,4.82-85.74c3.98-63.94,8.06-127.88,12.24-191.81
				c2.41-37.41,4.94-74.81,7.39-112.23C180.78,209.47,182.19,187.36,183.56,165.24z M169.31,154.43c0.43-6.26-0.97-10.62-8.8-12.04
				c-0.35,2.21-0.65,3.53-0.74,4.86c-4.23,65.62-8.45,131.24-12.66,196.86c-3.27,50.67-6.53,101.34-9.8,152.01
				c-2.72,43.19-5.25,86.39-7.88,129.59c-1.39,22.78-2.81,45.56-4.23,68.34c-0.38,6.13,0.34,11.59,8.66,12.42
				c0.37-2.29,0.86-4.25,0.99-6.24c4.12-65.97,8.22-131.95,12.29-197.93c3.51-56.79,6.88-113.61,10.48-170.39
				c2.23-35.03,4.88-70.03,7.2-105.05C166.41,202.72,167.65,178.57,169.31,154.43z M156.04,144.73c0.41-6.18-1.49-9.78-9.71-11.62
				c-11.21,185.69-23.83,370.31-34.43,555.52c9.52-0.36,10.35-5.45,10.68-11.29c1.52-27.57,3.08-55.12,4.82-82.68
				c3.62-57.13,7.43-114.25,11.04-171.38c2.45-38.77,4.64-77.56,7.08-116.33C148.92,252.87,152.42,198.8,156.04,144.73z
				 M141.65,136.45c0.44-6.38-0.58-10.58-8.4-12.23c-0.69,4.29-1.65,8.19-1.91,12.14c-2.21,34.36-4.36,68.73-6.44,103.09
				c-2.51,40.49-5.02,81-7.53,121.49c-2.99,47.98-5.99,95.97-9,143.95c-2.43,38.12-5.08,76.22-7.44,114.34
				c-1.2,19.38-1.98,38.8-2.99,58.2c-0.32,6.1,1.18,10.59,8.89,10.71c0.89-11.69,1.88-22.86,2.59-34.05
				c4.15-66.36,8.26-132.73,12.33-199.09c4.33-70.46,8.66-140.91,12.96-211.37C136.91,207.9,139.09,172.16,141.65,136.45z
				 M128.72,127.82c0.46-6.76-1.39-11.05-9.73-11.92C107.38,301.05,95.83,485.6,84.23,670.83c9.47-0.59,11.02-5.35,11.36-11.38
				c2.13-37.09,4.32-74.18,6.57-111.25c2.13-36.07,4.15-72.14,6.38-108.2c2.58-41.84,5.27-83.67,8.05-125.49
				c2.28-35.03,4.66-70.04,6.93-105.06C125.28,182.24,126.86,155.02,128.72,127.82z M114.37,117.39c0.35-5.33-0.71-9.54-8.21-10.61
				c-0.7,2.04-1.23,4.14-1.57,6.27c-2.13,31.62-4.25,63.25-6.19,94.89c-3.08,50.01-5.95,100.03-9.05,150.03
				c-3.06,49.32-6.3,98.63-9.45,147.94c-2.02,31.63-4.08,63.26-5.98,94.91c-1.18,19.39-2.07,38.79-3.13,58.2
				c-0.31,5.53,0.49,10.22,8.52,11.31c0.63-6.57,1.45-12.87,1.83-19.2c3.07-51.37,5.95-102.75,9.12-154.11
				c3.65-59.19,7.56-118.36,11.34-177.54c3.28-51.37,6.55-102.74,9.79-154.1C112.4,149.37,113.32,133.38,114.37,117.39z"/>
			<path class="st0" d="M479.63,164.07c3.28,7.29,0.48,11.17-5.66,14.14c-16.54,8.02-32.95,16.32-49.44,24.44
				c-27.19,13.4-54.38,26.75-81.6,40.08c-1.8,0.89-3.75,1.45-5.63,2.16c-3.27-8.75-2.82-10.1,5.35-14.13
				c22.9-11.3,45.86-22.48,68.79-33.74c20.16-9.94,40.33-19.86,60.52-29.74C474.35,166.11,476.87,165.22,479.63,164.07
				L479.63,164.07z"/>
			<path class="st0" d="M471.66,153.49c1.96,1.27,3.81,2.69,7.83,5.55c-13.5,6.86-25.2,12.95-37.03,18.81
				c-32.67,16.21-65.38,32.33-98.14,48.37c-6.06,2.97-11.56,5.35-18.87,0.52c-71.15-46.9-142.61-93.34-213.98-139.93
				c-1.98-1.29-3.85-2.73-7.34-5.2c4.54-2.49,8.11-4.62,11.82-6.46c42.18-20.84,84.4-41.56,126.51-62.53
				c5.21-2.6,9.23-2.41,14.14,0.8c45.65,29.83,91.34,59.61,137.05,89.37C419.67,119.67,445.67,136.58,471.66,153.49z"/>
			<path class="st0" d="M335.45,807.54c2.35,16.27,2.41,32.34-1.85,48.12l-4.31-0.49C332.54,839.41,330.14,823.13,335.45,807.54z"/>
			<path class="st0" d="M328.74,809.54l-2.68,46.89c-2.66-1.05-5.24-2.26-7.74-3.63c-41.71-27.05-83.37-54.16-124.99-81.33
				c-26.76-17.54-53.49-35.13-80.21-52.74c-4.19-2.77-8.65-4.99-7.92-11.72c1.11-10.19,1.33-10.9,15.22-14.45
				c1.28,6.16,0.13,12.76,7.43,17.26c6.9,4.26,12.49,3.4,19.35,0.31c2.48,6.45,1.58,13.32,8.33,17.9
				c6.99,4.74,12.61,2.72,19.45-0.03c1.43,6.82,0.59,13.63,7.94,17.84c6.7,3.84,12.35,4.75,19.34-0.95
				c3.84,20.57,10.64,25.11,27.53,19.73c1.48,6.19,1.41,12.59,8.22,17.01c6.51,4.22,11.66,4.13,18.12,0.28
				c3.43,6.23,1.53,14.06,9.66,18.13c7.12,3.57,12.62,2.66,19.69-1.14c0.06,8.98,1.02,16.94,10.06,19.64
				c3.55,1.06,7.92,1.59,11.31,0.49C313.76,816.8,320.29,813.3,328.74,809.54z"/>
			<path class="st0" d="M349.26,245.69c0,4.84,0.23,9.05-0.03,13.24c-3.45,54.09-6.89,108.2-10.36,162.29
				c-4.52,70.08-9,140.17-13.45,210.25c-3.62,56.82-7.16,113.63-10.63,170.46c-0.4,6.54-1.13,12.34-10.86,12.99
				c1.29-22.41,2.46-43.8,3.8-65.18c2.43-38.79,5.03-77.56,7.48-116.35c3.85-61.25,7.68-122.51,11.5-183.76
				c3.12-50.37,6.25-100.73,9.4-151.09c0.87-13.95,1.68-27.91,2.79-41.84C339.48,249.37,339.74,249.38,349.26,245.69z"/>
			<path class="st0" d="M325.43,250.73c7.95,0.09,8.54,4.55,8.23,9.79c-1.07,18.72-1.96,37.46-3.13,56.17
				c-2.45,39.14-5.05,78.25-7.54,117.39c-4.17,64.31-8.24,128.62-12.22,192.94c-3.69,59.56-7.18,119.12-10.83,178.68
				c-0.17,2.91-0.85,5.79-1.35,8.95c-7.93-1.54-8.9-6.31-8.52-12.31c1.75-27.22,3.34-54.44,5.01-81.66
				c1.95-31.99,3.92-63.97,5.93-95.96c2.93-46.61,5.86-93.23,8.79-139.85c2.51-39.47,4.99-78.95,7.44-118.42
				c2.18-35.03,4.28-70.08,6.5-105.12C323.95,257.99,324.79,254.69,325.43,250.73z"/>
			<path class="st0" d="M325.32,230.88c5.78,3.77,6.38,7.93,3.82,14.8c-10.78-6.85-21.05-13.25-31.18-19.85
				c-60.81-39.67-121.61-79.35-182.41-119.05c-3.42-2.24-6.7-4.7-10.16-6.88c-4.79-3.01-5.74-7.15-3.88-13.89
				c3.07,1.27,6.06,2.72,8.95,4.36C182.01,137.3,253.64,184.14,325.32,230.88z"/>
			<path class="st0" d="M311.03,241.03c8.43,1.71,10.07,6.08,9.64,12.34c-1.71,25.15-3.14,50.31-4.75,75.46
				c-2.46,38.77-5.02,77.53-7.48,116.31c-3.18,50.33-6.32,100.67-9.43,151c-1.61,26.18-3.06,52.38-4.69,78.56
				c-2.31,36.73-4.74,73.45-7.09,110.17c-0.38,6.15-1.65,11.46-10.92,11.99C287.9,611.44,299.43,426.62,311.03,241.03z"/>
			<path class="st0" d="M297.25,231.95c8.17,1.15,9.51,5.42,9.15,11.19c-1.63,24.82-3.06,49.66-4.66,74.49
				c-2.47,38.08-5.11,76.16-7.51,114.24c-2.83,44.89-5.42,89.79-8.25,134.68c-4.71,74.48-9.48,148.95-14.26,223.41
				c-0.15,2.24-0.7,4.44-1.11,6.93c-7.9-2.02-8.92-7.21-8.49-13.48c1.57-23.46,3.11-46.92,4.62-70.38
				c2.47-38.08,4.91-76.17,7.32-114.25c3.35-52.02,6.62-104.04,9.82-156.07c2.95-47.94,5.67-95.9,8.64-143.85
				C293.88,276.8,295.62,254.77,297.25,231.95z"/>
			<path class="st0" d="M283.8,223.73c8.25,1.01,9.68,4.93,9.28,10.94c-2.13,32.32-4.03,64.65-5.98,96.98
				c-2.43,40.14-4.77,80.3-7.3,120.43c-2.29,36.4-4.85,72.79-7.16,109.17c-2.3,36.06-4.41,72.13-6.68,108.19
				c-2.08,32.99-4.35,65.97-6.37,98.96c-0.35,5.8-2.06,9.77-10.45,10.59C260.26,593.47,271.87,408.75,283.8,223.73z"/>
			<path class="st0" d="M270.6,214.19c7.25,1.53,8.93,5.21,8.54,11.34c-4.8,74.16-9.34,148.33-14.03,222.49
				c-4.53,69.74-9,139.48-13.42,209.23c-2.4,37.76-4.6,75.53-6.94,113.29c-0.16,2.64-0.69,5.23-1.11,8.26
				c-7.37-1.42-8.95-5.66-8.52-11.92c1.79-25.49,3.35-51,4.92-76.52c2.54-41.16,4.96-82.33,7.52-123.5
				c2.39-38.44,5.01-76.86,7.36-115.29c1.82-29.61,3.23-59.23,5.13-88.82c3.07-47.95,6.39-95.89,9.63-143.83
				C269.9,217.34,270.21,215.75,270.6,214.19z"/>
			<path class="st0" d="M265.53,216.48c-0.7,13.61-1.39,27.23-2.23,40.84c-2.74,43.9-5.5,87.8-8.29,131.7
				c-3.28,51.04-6.54,102.07-9.79,153.1c-3.93,61.59-7.82,123.18-11.69,184.77c-0.52,8.17-0.73,16.35-1.15,24.53
				c-0.31,5.91-3.11,9.34-10.92,9.69c11.54-185.55,23.03-370.36,34.55-555.48C264.46,206.4,265.82,210.88,265.53,216.48z"/>
			<path class="st0" d="M242.54,196.24c7.68,0.39,9.01,5.08,8.66,11.07c-0.91,15.65-1.73,31.31-2.75,46.96
				c-1.7,26.19-3.66,52.36-5.3,78.54c-3.25,52.39-6.47,104.77-9.68,157.17c-2.33,38.1-4.55,76.21-6.97,114.3
				c-3.19,49.65-6.44,99.3-9.71,148.95c-0.15,2.28-0.75,4.54-1.24,7.39c-7.76-1.31-8.01-5.89-7.71-11.02
				c1.11-18.72,2.05-37.43,3.15-56.14c2.63-44.9,5.24-89.82,8.03-134.71c2.95-47.28,6.17-94.55,9.18-141.82
				c2.42-39.12,4.84-78.22,7.26-117.34c1.99-32.65,4.02-65.31,6.07-97.96C241.76,199.8,242.1,198.01,242.54,196.24z"/>
			<path class="st0" d="M228.81,187.41c9.37,1.54,10.37,6.8,9.93,13.08c-1.44,20.05-2.82,40.11-4.14,60.17
				c-1.94,29.93-3.88,59.85-5.81,89.77c-2.44,37.74-4.95,75.48-7.3,113.23c-2.44,39.12-4.66,78.24-7.1,117.36
				c-3.14,50.33-6.46,100.66-9.5,151c-0.38,6.24-2.3,10.32-10.81,11.84C205.68,557.93,217.23,372.89,228.81,187.41z"/>
			<path class="st0" d="M215.95,178.48c8.3,1.98,8.57,7.17,8.19,13c-1.4,21.08-2.59,42.17-3.97,63.25
				c-2.54,38.77-5.26,77.52-7.72,116.29c-5.42,86.73-10.84,173.45-16.26,260.18c-2.12,34.02-4.27,68.02-6.44,102.03
				c-0.19,2.94-0.7,5.86-1.09,9.16c-7.44-0.71-8.95-4.95-8.62-10.64c0.91-15.3,1.73-30.61,2.7-45.91
				c2.52-39.1,5.02-78.19,7.49-117.3c3.28-51.68,6.53-103.37,9.74-155.05c3.55-58.16,7.15-116.33,10.8-174.47
				c1.15-18.36,2.54-36.71,3.9-55.05C214.97,182.1,215.4,180.28,215.95,178.48z"/>
			<path class="st0" d="M201.2,168.96c7.58,1.76,9.91,5.34,9.5,11.34c-0.97,14.28-1.73,28.57-2.61,42.85
				c-4.09,66.65-8.24,133.29-12.4,199.93c-3.43,53.7-6.82,107.43-10.2,161.16c-2.75,43.18-5.42,86.35-8,129.54
				c-0.38,6.56-2.45,11.06-11.13,11.73C177.99,539.83,189.57,354.75,201.2,168.96z"/>
			<path class="st0" d="M187.99,160.63c7.55,0.77,8.72,5.2,8.36,10.88c-1,16-1.85,32-2.89,47.98c-2.46,38.1-5.07,76.2-7.47,114.31
				c-4.68,74.18-9.3,148.36-13.89,222.53c-3.05,50.71-6.14,101.42-9.24,152.12c-0.32,5.33-1,10.63-1.55,16.47
				c-7.02-1.89-9.08-5.5-8.69-11.57c3.43-54.78,6.84-109.55,10.24-164.32c2.08-33.68,4.17-67.34,6.29-101.02
				c2.88-44.89,5.71-89.79,8.48-134.7c2.91-48.31,5.86-96.62,8.86-144.93C186.82,165.77,187.32,163.17,187.99,160.63z"/>
			<path class="st0" d="M173.89,151.29c10.1,2.12,10.03,8.05,9.67,13.96c-1.37,22.12-2.79,44.22-4.24,66.32
				c-2.45,37.41-4.98,74.82-7.39,112.23c-4.17,63.93-8.25,127.87-12.24,191.81c-1.78,28.58-3.11,57.18-4.82,85.74
				c-1.5,24.84-3.33,49.63-4.83,74.46c-0.37,6.19-2.56,10.28-10.99,11.61C150.68,521.81,162.25,337.04,173.89,151.29z"/>
			<path class="st0" d="M160.51,142.39c7.84,1.42,9.23,5.78,8.8,12.04c-1.66,24.14-2.9,48.29-4.5,72.43
				c-2.32,35.02-4.97,70.02-7.2,105.05c-3.61,56.79-6.97,113.6-10.48,170.39c-4.07,65.98-8.17,131.95-12.29,197.93
				c-0.12,1.99-0.62,3.94-0.99,6.24c-8.32-0.83-9.04-6.29-8.66-12.42c1.42-22.79,2.84-45.56,4.23-68.34
				c2.63-43.2,5.16-86.41,7.88-129.59c3.27-50.67,6.53-101.34,9.8-152.01c4.21-65.62,8.43-131.24,12.66-196.86
				C159.86,145.92,160.16,144.61,160.51,142.39z"/>
			<path class="st0" d="M146.32,133.11c8.22,1.84,10.13,5.45,9.71,11.62c-3.61,54.06-7.12,108.14-10.52,162.22
				c-2.44,38.77-4.63,77.55-7.08,116.33c-3.61,57.13-7.42,114.25-11.04,171.38c-1.74,27.56-3.3,55.11-4.82,82.68
				c-0.33,5.84-1.15,10.92-10.68,11.29C122.49,503.42,135.11,318.79,146.32,133.11z"/>
			<path class="st0" d="M133.25,124.22c7.82,1.64,8.85,5.85,8.4,12.23c-2.56,35.71-4.75,71.45-6.95,107.18
				c-4.3,70.46-8.63,140.91-12.96,211.37c-4.07,66.36-8.18,132.72-12.33,199.09c-0.71,11.19-1.69,22.36-2.59,34.05
				c-7.71-0.12-9.21-4.61-8.89-10.71c1.01-19.4,1.79-38.82,2.99-58.2c2.37-38.12,5.02-76.22,7.44-114.34
				c3.01-47.98,6.01-95.97,9-143.95c2.51-40.49,5.02-81,7.53-121.49c2.08-34.37,4.23-68.73,6.44-103.09
				C131.6,132.42,132.57,128.51,133.25,124.22z"/>
			<path class="st0" d="M118.99,115.9c8.34,0.87,10.19,5.15,9.73,11.92c-1.86,27.2-3.43,54.42-5.2,81.63
				c-2.27,35.02-4.65,70.03-6.93,105.06c-2.78,41.82-5.47,83.65-8.05,125.49c-2.23,36.06-4.25,72.14-6.38,108.2
				c-2.25,37.07-4.44,74.16-6.57,111.25c-0.35,6.03-1.89,10.79-11.36,11.38C95.83,485.6,107.38,301.05,118.99,115.9z"/>
			<path class="st0" d="M106.17,106.78c7.49,1.07,8.56,5.28,8.21,10.61c-1.05,15.99-1.98,31.98-2.98,47.97
				c-3.24,51.36-6.51,102.73-9.79,154.1C97.83,378.65,93.92,437.81,90.26,497c-3.17,51.36-6.05,102.74-9.12,154.11
				c-0.38,6.33-1.19,12.63-1.83,19.2c-8.03-1.09-8.83-5.78-8.52-11.31c1.06-19.4,1.95-38.81,3.13-58.2
				c1.9-31.64,3.96-63.28,5.98-94.91c3.15-49.31,6.39-98.62,9.45-147.94c3.1-50.01,5.97-100.02,9.05-150.03
				c1.95-31.63,4.07-63.26,6.19-94.89C104.94,110.92,105.47,108.82,106.17,106.78z"/>
		</g>
		<g>
		</g>
	</g>
</g>
</svg>
