<svg xmlns="http://www.w3.org/2000/svg" width="144.814" height="211.816" viewBox="0 0 144.814 211.816"><g transform="translate(-184.999 -5121.534)"><g transform="translate(184.999 5121.534)"><path d="M-7351.746,11921.391l-116.921-65.39v4.2l115.212,63.26Z" transform="translate(7477.482 -11746.402)" fill="#141414"/><g transform="translate(0 7.027) rotate(-3)"><path d="M6.221,159.947c-1.467.312-2.69,1.4-4.233.218-1.363-1.04-2.1-2.013-1.974-3.829.714-10.277,1.334-20.561,1.958-30.844C2.73,113,3.439,100.513,4.209,88.026q1.109-17.994,2.3-35.983C7.1,43.068,7.733,34.1,8.285,25.118a7.073,7.073,0,0,0-.5-2.812c-1.033-2.768-.384-4.7,2.223-5.984C20.714,11.041,31.443,5.8,42.125.474a3.323,3.323,0,0,1,3.8.266c6.867,4.583,13.816,9.042,20.678,13.63a3.5,3.5,0,0,0,4.058.312c2.011-1.089,4.131-1.978,6.159-3.037a2.6,2.6,0,0,1,2.946.2q12.7,8.369,25.435,16.671c9.1,5.948,18.2,11.911,27.35,17.788a3.069,3.069,0,0,1,1.7,3.15c-.645,9.381-1.228,18.767-1.817,28.152-.441,7.019-.855,14.04-1.29,21.059q-1.071,17.261-2.154,34.522c-.519,8.242-1.1,16.481-1.544,24.728-.1,1.862-.607,3.165-2.471,3.709-1.312.383-1.681,1.312-1.746,2.6-.16,3.183-.352,6.37-.69,9.538-.322,3.015-1.74,3.7-4.236,2.145-2.774-1.731-5.53-3.493-8.228-5.34a2.492,2.492,0,0,0-2.9-.173q-19.412,9.706-38.888,19.283a3.577,3.577,0,0,0-2.341,3.558c-.048,2.776-.348,5.547-.5,8.323-.19,3.451-1.907,4.435-4.767,2.589-6.734-4.344-13.425-8.752-20.139-13.126q-10.687-6.961-21.381-13.911c-3.011-1.966-5.94-4.062-9.013-5.923a3.382,3.382,0,0,1-1.779-3.643c.155-1.614.33-3.168-1.359-4.4C6.389,162.7,6.5,161.238,6.221,159.947ZM60.667,192.23a17.269,17.269,0,0,0,1.918-.637c6.833-3.33,13.673-6.646,20.481-10.028,13.544-6.729,27.041-13.551,40.626-20.2,2.258-1.1,2.974-2.543,3.088-4.918.435-8.982,1.048-17.955,1.608-26.931q1.137-18.236,2.3-36.471,1.166-18.356,2.334-36.713a31.718,31.718,0,0,0-.229-3.579L97.433,70.518c.6-9.991,1.164-19.354,1.73-28.77a4.3,4.3,0,0,0-.945.071c-9.246,4.539-18.477,9.108-27.741,13.608a3,3,0,0,0-1.789,2.9C68.147,67.217,67.556,76.107,67.005,85c-.581,9.385-1.114,18.773-1.706,28.157-.725,11.5-1.5,23.005-2.232,34.51q-1.221,19.215-2.384,38.433C60.568,188.033,60.667,189.98,60.667,192.23ZM99,36.462c-.965-.684-1.409-1.024-1.877-1.329q-9.352-6.086-18.709-12.164Q61.964,12.267,45.537,1.537a3.015,3.015,0,0,0-3.39-.193c-10.1,5.03-20.226,10-30.34,15-.891.441-1.749.952-2.837,1.548.836.594,1.286.939,1.76,1.249C27.846,30.314,44.985,41.452,62.052,52.7c1.755,1.157,3.071.585,4.525-.126q11.783-5.769,23.538-11.6C92.949,39.57,95.756,38.11,99,36.462ZM69.74,16.128c.911.673,1.407,1.079,1.941,1.427,8.892,5.8,17.771,11.626,26.705,17.363a3.469,3.469,0,0,1,1.934,3.562c-.5,5.857-.919,11.721-1.326,17.585-.2,2.876-.3,5.758-.47,9.049l34.53-17.306c-3.12-2.08-5.8-3.887-8.5-5.665q-15.142-9.969-30.3-19.916-7.176-4.7-14.445-9.252a3.248,3.248,0,0,0-2.43-.564C74.906,13.435,72.547,14.731,69.74,16.128ZM56.886,193.77c2.335-.156,2.51-1.547,2.606-3.115q1.248-20.443,2.55-40.884,1.6-25.214,3.226-50.428Q66.513,79.882,67.75,60.42c.064-1,.008-2.016.008-3.176-2.282.884-2.345.879-2.485,2.64-.265,3.341-.461,6.689-.669,10.034q-1.132,18.118-2.254,36.237-1.375,22.037-2.76,44.074c-.588,9.3-1.209,18.6-1.794,27.905C57.475,183.264,57.2,188.4,56.886,193.77ZM58.592,56.127c-2.78,44.513-5.548,88.841-8.325,133.313,2.224-.129,2.528-1.4,2.622-2.876.562-8.807,1.145-17.614,1.7-26.422.394-6.28.738-12.562,1.125-18.842q1.117-18.11,2.26-36.218c.588-9.3,1.2-18.6,1.794-27.894.384-6.034.728-12.07,1.138-18.1C61.005,57.583,60.612,56.537,58.592,56.127ZM25.7,34.6c-2.791,44.552-5.568,88.865-8.357,133.382,2.023-.318,2.546-1.3,2.636-2.784.36-5.954.8-11.9,1.159-17.858.413-6.854.732-13.713,1.159-20.566q1.432-23,2.933-46C25.807,71.8,26.415,62.829,27,53.857q.521-7.952,1.015-15.906C28.1,36.532,28.121,35.111,25.7,34.6Zm-6.611-4.361C16.4,74.78,13.37,119.06,10.83,163.48c2.283-.088,2.482-1.307,2.56-2.707.366-6.611.739-13.222,1.157-19.83.868-13.7,1.781-27.4,2.648-41.1.589-9.3,1.112-18.6,1.7-27.9q1.225-19.456,2.524-38.906C21.517,31.55,21.059,30.686,19.087,30.243ZM52.059,51.977c-2.861,44.376-5.646,88.681-8.313,133.175,2.012-.2,2.421-1.147,2.506-2.537.483-7.914,1.027-15.824,1.527-23.738.546-8.648,1.051-17.3,1.6-25.946.557-8.73,1.17-17.455,1.719-26.185.607-9.627,1.168-19.257,1.751-28.886.47-7.753.923-15.508,1.434-23.258C54.38,53.16,54.037,52.219,52.059,51.977ZM37.109,180.864c1.873-.085,2.546-.907,2.619-2.325.1-1.961.152-3.924.276-5.884q1.39-22.158,2.8-44.315,1.168-18.36,2.348-36.719,1-15.793,1.99-31.588c.2-3.263.366-6.529.534-9.795.069-1.344-.258-2.416-2.282-2.6C42.634,92.036,39.877,136.361,37.109,180.864ZM32.249,38.842C29.46,83.4,26.682,127.792,23.9,172.329c2.08-.163,2.575-1.243,2.669-2.814q.928-15.537,1.919-31.07,1.215-19.327,2.445-38.653,1.5-23.975,2.974-47.952c.212-3.426.392-6.853.627-10.277C34.628,40.121,34.066,39.263,32.249,38.842ZM4.192,159.213c2.273-.144,2.641-1.284,2.724-2.731Q7.684,143.14,8.493,129.8c.511-8.65.995-17.3,1.53-25.951q.931-15.051,1.931-30.1c.546-8.4,1.117-16.8,1.661-25.2.423-6.527.8-13.055,1.246-19.58.111-1.622-.335-2.649-2.334-2.857C9.747,70.522,6.975,114.785,4.192,159.213ZM38.868,43.267l-8.33,133.458c2.042-.363,2.5-1.343,2.593-2.839.729-12.073,1.526-24.143,2.278-36.216.584-9.381,1.119-18.765,1.7-28.147.564-9.054,1.165-18.106,1.749-27.159q.7-10.765,1.393-21.53.477-7.217.995-14.43C41.355,44.9,41.118,43.637,38.868,43.267ZM55.281,53.95c-.39,5.472-.807,10.756-1.134,16.046-.714,11.5-1.366,23-2.073,34.5q-1.151,18.718-2.355,37.432-.868,13.7-1.755,27.4-.544,8.441-1.11,16.88c-.1,1.506.143,2.753,2.036,3.232.1-.6.232-1.125.267-1.66Q50.878,161,52.578,134.2c.678-10.766,1.3-21.536,1.977-32.3.576-9.136,1.21-18.267,1.8-27.4.385-5.954.729-11.911,1.118-17.864C57.565,55.248,57.245,54.226,55.281,53.95ZM15.952,28.112c-.165,1.028-.4,1.964-.457,2.911q-.8,12.36-1.546,24.724-.9,14.57-1.807,29.139-1.074,17.262-2.158,34.524C9.4,128.552,8.767,137.689,8.2,146.831c-.289,4.65-.477,9.306-.719,13.959-.076,1.464.284,2.538,2.134,2.571.214-2.8.45-5.483.618-8.168q1.492-23.874,2.958-47.749Q14.751,82.1,16.3,56.749c.53-8.57,1.054-17.142,1.667-25.707C18.074,29.515,17.829,28.506,15.952,28.112ZM48.893,49.69a10.664,10.664,0,0,0-.22,1.138c-.777,11.5-1.573,22.994-2.309,34.494-.454,7.1-.792,14.2-1.229,21.3-.566,9.218-1.192,18.433-1.767,27.652-.616,9.872-1.2,19.747-1.8,29.62-.376,6.119-.752,12.238-1.179,18.353-.1,1.5.276,2.519,2.042,2.858.1-.725.228-1.35.267-1.98.56-9.057,1.088-18.117,1.662-27.173q1.59-25.092,3.218-50.181C48.7,87.987,49.791,70.2,50.941,52.41A2.212,2.212,0,0,0,48.893,49.69Zm-26.4-17.221c-.082.531-.156.846-.177,1.165Q20.79,57.242,19.276,80.85,18.1,99.078,16.925,117.306c-.652,10.36-1.259,20.722-1.891,31.083q-.5,8.2-1.014,16.391c-.089,1.471.083,2.783,2.078,2.979.089-.548.206-1.019.236-1.494q1.481-23.735,2.947-47.471c.84-13.623,1.648-27.247,2.515-40.869.534-8.4,1.169-16.8,1.725-25.2.384-5.79.682-11.585,1.078-17.373C24.7,33.856,24.369,32.812,22.489,32.469ZM62.044,58.454c-.156.951-.355,1.741-.406,2.541-.533,8.4-1.037,16.811-1.56,25.215q-.882,14.2-1.782,28.4-1.055,16.771-2.11,33.542-.72,11.507-1.421,23.016c-.4,6.528-.782,13.057-1.2,19.584-.092,1.439.141,2.584,2.042,2.953.118-.757.281-1.448.324-2.147.872-14.284,1.71-28.571,2.6-42.854q1.433-23.141,2.933-46.277c.6-9.385,1.223-18.768,1.809-28.154.281-4.489.5-8.982.752-13.473C64.092,59.546,63.95,58.474,62.044,58.454ZM35.787,41.127a9.338,9.338,0,0,0-.307,1.31c-.323,4.4-.657,8.8-.933,13.2q-1.313,20.923-2.589,41.847-1.157,18.6-2.336,37.188-.889,14.067-1.8,28.133c-.231,3.67-.43,7.342-.647,11.012-.08,1.363.28,2.38,2.065,2.55.1-.789.216-1.49.262-2.2q.782-12.236,1.544-24.472,1.95-31.2,3.9-62.4c.588-9.3,1.241-18.593,1.849-27.89.33-5.056.615-10.115.951-15.171C37.843,42.847,37.777,41.6,35.787,41.127Zm-.094,139.616c.117-.683.259-1.224.3-1.771q1.179-17.86,2.33-35.722c.58-9.137,1.113-18.278,1.672-27.416q1.153-18.847,2.319-37.694c.4-6.281.862-12.558,1.272-18.838.245-3.753.442-7.509.659-11.263.083-1.438-.234-2.56-2.076-2.656a11.32,11.32,0,0,0-.241,1.291q-.738,11.745-1.456,23.493Q39.6,84.24,38.726,98.311c-.722,11.339-1.493,22.675-2.2,34.015-.672,10.768-1.294,21.539-1.927,32.309-.264,4.487-.489,8.977-.756,13.464C33.77,179.332,33.831,180.43,35.693,180.743ZM29.08,36.843a14.544,14.544,0,0,0-.359,1.863Q27.644,56.084,26.6,73.463q-1,16.155-2.036,32.307Q23.8,117.885,23.054,130q-1.222,19.705-2.457,39.41c-.093,1.457.4,2.321,2.084,2.775.135-1.4.3-2.672.374-3.949q1.12-18.242,2.217-36.485Q26.92,105.064,28.6,78.378c.576-9.139,1.2-18.275,1.794-27.414.247-3.835.451-7.673.692-11.509C31.171,38.091,30.892,37.028,29.08,36.843ZM9.456,23.929a9.183,9.183,0,0,0-.377,1.5C8.569,33.017,8.06,40.6,7.593,48.19,6.854,60.184,6.165,72.18,5.422,84.173,4.688,96,3.91,107.828,3.156,119.655c-.484,7.587-.977,15.173-1.434,22.762-.28,4.651-.5,9.306-.75,13.958-.073,1.326.116,2.451,2.043,2.713.153-1.574.348-3.086.439-4.6.737-12.321,1.426-24.644,2.187-36.963.876-14.2,1.813-28.389,2.719-42.583q1.179-18.479,2.348-36.96c.243-3.834.465-7.669.714-11.5C11.506,25.2,11.253,24.185,9.456,23.929ZM32.5,176.974c-1.674,1.367-3.029,1.147-4.636.228-1.764-1.01-1.56-2.642-1.9-4.279-1.64.661-2.989,1.146-4.664.01-1.623-1.1-1.406-2.748-2-4.294a4.413,4.413,0,0,1-4.641-.075c-1.75-1.08-1.476-2.665-1.782-4.143-3.33.855-3.383,1.023-3.649,3.466-.176,1.615.893,2.147,1.9,2.811q9.609,6.338,19.237,12.649,14.973,9.778,29.978,19.508a16.343,16.343,0,0,0,1.857.87l.643-11.247c-2.027.9-3.592,1.741-5.255,2.277a4.872,4.872,0,0,1-2.712-.119c-2.167-.647-2.4-2.557-2.411-4.709a4.558,4.558,0,0,1-4.723.272c-1.951-.976-1.494-2.854-2.317-4.348a3.618,3.618,0,0,1-4.346-.067c-1.633-1.06-1.617-2.6-1.971-4.08C35.053,183,33.421,181.909,32.5,176.974ZM62.935,57.242c.615-1.647.47-2.646-.916-3.55q-25.79-16.814-51.534-33.7a19.36,19.36,0,0,0-2.146-1.046c-.449,1.617-.218,2.609.931,3.332.83.523,1.616,1.113,2.437,1.649Q33.577,38.21,55.456,52.482C57.886,54.066,60.35,55.6,62.935,57.242Zm35.73,11.545c.69-.277,1.37-.5,2-.812q11.822-5.912,23.632-11.847c2.479-1.243,4.966-2.467,7.443-3.714,1.35-.679,2.291-1.564,1.463-3.417-.65.238-1.262.4-1.822.677-2.052,1-4.09,2.029-6.129,3.053Q112.571,59.1,99.883,65.469C98.457,66.181,98.012,67.149,98.665,68.787Zm.363-31.117c-.662.276-1.267.491-1.839.772Q89.926,42,82.673,45.576c-5.5,2.7-11.005,5.382-16.5,8.091-1.958.965-2.065,1.29-1.281,3.388.451-.17.919-.3,1.35-.516q9.791-4.8,19.571-9.614c3.955-1.949,7.889-3.94,11.856-5.862C99.142,40.35,99.814,39.42,99.027,37.669Zm21.316,126.394a110.383,110.383,0,0,0-10.589,5.191l9.806,6.367Zm1.731-.682c-1.235,1.412-1.9,9.4-1.136,11.688C121.915,173.892,122.636,166.924,122.074,163.38ZM62.969,203.424l1.033.118A28.258,28.258,0,0,0,64.445,192C63.175,195.74,63.751,199.644,62.969,203.424Z" transform="translate(0 0)" fill="#8d3cd0"/></g></g></g></svg>